<svg width="12" height="12" viewBox="0 0 12 12" fill="none" xmlns="http://www.w3.org/2000/svg">
<g id="Group">
<g id="Group_2">
<path id="Vector" d="M5.99689 11.1673L11.463 7.19532L9.37539 0.769043H2.61839L0.530762 7.19532L5.99689 11.1673Z" fill="#31414C"/>
<path id="Vector_2" d="M9.57251 0.5H2.42465L0.21582 7.29851L5.99822 11.5L11.7806 7.29851L9.57179 0.5H9.57251ZM1.35967 6.92627L3.13176 1.47255H8.86611L10.6382 6.92627L5.99893 10.2972L1.35967 6.92627Z" fill="url(#paint0_radial_5244_31906)"/>
<g id="Vector_3" style="mix-blend-mode:multiply" opacity="0.2">
<path d="M3.13135 1.47266L5.99852 10.2973L8.86569 1.47266H3.13135Z" fill="#0C363D"/>
</g>
<path id="Vector_4" d="M9.56912 0.5H2.42126L1.91064 2.07286C2.22834 2.0872 2.55751 2.12737 2.89458 2.19192L3.12837 1.47326H8.86271L10.6348 6.92699L9.96211 7.41613C10.1134 7.71019 10.2475 8.01429 10.3623 8.32772L11.7779 7.29923L9.56912 0.500717V0.5Z" fill="url(#paint1_radial_5244_31906)"/>
<path id="Vector_5" style="mix-blend-mode:screen" d="M9.56912 0.5H2.42126L1.91064 2.07286C2.22834 2.0872 2.55751 2.12737 2.89458 2.19192L3.12837 1.47326H8.86271L10.6348 6.92699L9.96211 7.41613C10.1134 7.71019 10.2475 8.01429 10.3623 8.32772L11.7779 7.29923L9.56912 0.500717V0.5Z" fill="url(#paint2_linear_5244_31906)"/>
<path id="Vector_6" style="mix-blend-mode:screen" d="M9.18094 9.18765C9.14723 8.80896 9.09058 8.4482 9.01456 8.10609L5.99893 10.2972L1.35967 6.92626L2.63191 3.01025C2.27046 3.01886 1.91475 3.05974 1.5698 3.13003L0.21582 7.29778L5.99822 11.4992L9.18022 9.18693L9.18094 9.18765Z" fill="url(#paint3_linear_5244_31906)"/>
<path id="Vector_7" d="M1.36426 6.92638L1.82324 6.82382L3.41962 1.90872H8.58742L10.1838 6.82382L10.6421 6.92638L8.87069 1.47266H3.13634L1.36426 6.92638Z" fill="#455A82"/>
<g id="Vector_8" style="mix-blend-mode:multiply" opacity="0.2">
<path d="M1.82494 6.82354L2.71851 4.5306C3.24777 3.1729 4.55514 2.58407 6.01239 2.58407C7.47538 2.58407 8.78776 3.18079 9.312 4.54709L10.1862 6.82354L8.58912 1.90845H3.42132L1.82422 6.82354H1.82494Z" fill="#2753A0"/>
</g>
<path id="Vector_9" d="M1.36426 6.92629L1.82324 6.82373L6.00352 9.86115L10.1838 6.82373L10.6421 6.92629L6.00352 10.2972L1.36426 6.92629Z" fill="url(#paint4_linear_5244_31906)"/>
<g id="Vector_10" style="mix-blend-mode:multiply" opacity="0.6">
<path d="M1.81833 6.82354L3.45774 2.61634C3.53663 2.41337 3.73241 2.27925 3.95042 2.27925H8.07046C8.28919 2.27925 8.48569 2.41409 8.56386 2.61849L10.1789 6.82354L8.58179 1.90845H3.41399L1.81689 6.82354H1.81833Z" fill="#2753A0"/>
</g>
<path id="Vector_11" d="M3.13135 1.47266L3.41462 1.90872H8.58242L8.86569 1.47266H3.13135Z" fill="#2E3E54"/>
<g id="Vector_12" style="mix-blend-mode:multiply" opacity="0.35">
<path d="M1.00756 4.85986L0.453915 6.93406C0.410886 7.11264 0.495511 7.35004 0.643245 7.4605L5.99822 11.4999L0.21582 7.2984L1.00828 4.86058L1.00756 4.85986Z" fill="#455A82"/>
</g>
<g id="Vector_13" style="mix-blend-mode:multiply" opacity="0.6">
<path d="M1.82422 6.82373L5.8123 9.51043C5.91772 9.58143 6.09128 9.58143 6.1967 9.51043L10.1848 6.82373L6.0045 9.86115L1.82422 6.82373Z" fill="#2753A0"/>
</g>
<g id="Vector_14" style="mix-blend-mode:multiply" opacity="0.35">
<path d="M6.00195 11.5001L11.1511 7.52242C11.5111 7.25561 11.5893 7.19752 11.4272 6.68614L10.3529 2.89062L11.7851 7.29865L6.00267 11.5001H6.00195Z" fill="#455A82"/>
</g>
<path id="Vector_15" d="M3.4458 8.44031L6.00101 10.2972L9.45195 7.78979L6.00101 10.455L3.4458 8.44031Z" fill="#F3FEFF"/>
<path id="Vector_16" d="M5.80469 0.5H9.57189L10.3486 2.89049L9.42846 0.632685L5.80469 0.5Z" fill="#F3FEFF"/>
<g id="Vector_17" style="mix-blend-mode:screen">
<path d="M7.30333 0.5C7.27178 0.809838 7.40732 1.15625 7.66837 1.47255H8.86529L9.16147 2.38341C9.53654 2.47522 9.89512 2.47809 10.1892 2.39776L9.5724 0.5H7.30405H7.30333Z" fill="white"/>
</g>
<g id="Vector_18" style="mix-blend-mode:screen">
<path d="M3.135 8.21436C3.04463 8.44745 3.20814 8.79459 3.53732 9.03342C3.86649 9.27225 4.2473 9.32102 4.44021 9.16324L3.13428 8.21436H3.135Z" fill="white"/>
</g>
<g id="Vector_19" style="mix-blend-mode:screen">
<path d="M4.45299 9.79876C4.39777 9.88339 4.24501 9.88196 4.11234 9.79518C3.97967 9.70839 3.91584 9.56925 3.97106 9.48462C4.02628 9.39999 4.17903 9.40142 4.31171 9.48821C4.4451 9.57499 4.50821 9.71413 4.45299 9.79876Z" fill="white"/>
</g>
<g id="Vector_20" style="mix-blend-mode:multiply" opacity="0.35">
<path d="M1.14258 4.45976L2.35026 0.996315C2.47504 0.644878 2.56612 0.552356 2.93833 0.538729L6.00272 0.5H2.42915L1.14258 4.45976Z" fill="#455A82"/>
</g>
<g id="Vector_21" style="mix-blend-mode:screen">
<path d="M7.08115 1.04073C6.83158 0.859269 6.53038 0.847794 6.40846 1.01491C6.32169 1.13468 6.35037 1.31399 6.46583 1.47249H7.36156C7.34793 1.32618 7.24681 1.16122 7.08043 1.04073H7.08115Z" fill="white"/>
</g>
<g id="Vector_22" style="mix-blend-mode:multiply" opacity="0.6">
<path d="M5.18787 5.90933L5.62461 5.15266V4.79047L4.75112 5.15266L4.31366 4.396L3.87691 5.15266L3.00342 4.79047V5.15266L3.44017 5.90933L3.00342 6.3038V6.66599H3.87691L4.31366 7.42266L4.75112 6.66599H5.62461V6.3038L5.18787 5.90933Z" fill="#2753A0"/>
</g>
<path id="Vector_23" d="M5.18787 5.54702L5.62461 4.79036V4.50706L4.75112 4.79036L4.31366 4.03369L3.87691 4.79036L3.00342 4.50706V4.79036L3.44017 5.54702L3.00342 6.02039V6.30369H3.87691L4.31366 7.06035L4.75112 6.30369H5.62461V6.02039L5.18787 5.54702Z" fill="#455A82"/>
<path id="Vector_24" d="M5.18787 5.26357L5.62461 4.50691H4.75112L4.31366 3.75024L3.87691 4.50691H3.00342L3.44017 5.26357L3.00342 6.02024H3.87691L4.31366 6.77762L4.75112 6.02024H5.62461L5.18787 5.26357Z" fill="url(#paint5_radial_5244_31906)"/>
<path id="Vector_25" style="mix-blend-mode:screen" d="M5.18787 5.26357L5.62461 4.50691H4.75112L4.31366 3.75024L3.87691 4.50691H3.00342L3.44017 5.26357L3.00342 6.02024H3.87691L4.31366 6.77762L4.75112 6.02024H5.62461L5.18787 5.26357Z" fill="url(#paint6_linear_5244_31906)"/>
<path id="Vector_26" d="M5.62349 6.02026H4.75V6.30356H5.62349V6.02026Z" fill="#2E3E54"/>
<path id="Vector_27" d="M3.87691 6.30356L4.31366 7.06023V6.77765L3.87691 6.02026H3.00342V6.30356H3.87691Z" fill="#2E3E54"/>
<path id="Vector_28" d="M3.00342 4.50708L3.44017 5.26375L3.35841 5.40575L3.00342 4.79038V4.50708Z" fill="#2E3E54"/>
<g id="Vector_29" style="mix-blend-mode:multiply" opacity="0.35">
<path d="M3.00342 4.50708L3.60081 5.26375L3.00342 6.02041L3.44017 5.26375L3.00342 4.50708Z" fill="#455A82"/>
</g>
<g id="Vector_30" style="mix-blend-mode:screen" opacity="0.8">
<path d="M4.31738 3.75024L4.73907 4.5815L5.62833 4.50691H4.75484L4.31738 3.75024Z" fill="#F3FAFF"/>
</g>
<g id="Vector_31" style="mix-blend-mode:screen" opacity="0.5">
<path d="M3.00342 6.02047L3.95938 5.93799L4.31366 6.77785L3.87691 6.02047H3.00342Z" fill="#F3FAFF"/>
</g>
<g id="Vector_32" style="mix-blend-mode:multiply" opacity="0.35">
<path d="M4.31738 6.77784L4.69819 5.84546L5.62833 6.02046H4.75484L4.31738 6.77784Z" fill="#455A82"/>
</g>
<path id="Vector_33" opacity="0.5" d="M5.17506 5.233C5.06749 5.41876 4.7505 5.43669 4.46579 5.27245C4.1818 5.10821 4.03837 4.8249 4.14523 4.63843C4.2528 4.45267 4.56978 4.43474 4.85449 4.59898C5.13849 4.76322 5.28191 5.04652 5.17506 5.233Z" fill="#E6FAFF"/>
<path id="Vector_34" opacity="0.5" d="M4.14122 5.34684C4.1068 5.40637 3.99349 5.40565 3.88879 5.34468C3.78408 5.28372 3.72599 5.18618 3.76041 5.12737C3.79484 5.06784 3.90815 5.06856 4.01285 5.12952C4.11827 5.19048 4.17564 5.28802 4.14122 5.34684Z" fill="#E6FAFF"/>
<g id="Vector_35" style="mix-blend-mode:multiply" opacity="0.6">
<path d="M8.52526 5.90933L8.96201 5.15266V4.79047L8.08852 5.15266L7.65177 4.396L7.21431 5.15266L6.34082 4.79047V5.15266L6.77756 5.90933L6.34082 6.3038V6.66599H7.21431L7.65177 7.42266L8.08852 6.66599H8.96201V6.3038L8.52526 5.90933Z" fill="#2753A0"/>
</g>
<path id="Vector_36" d="M8.52526 5.54702L8.96201 4.79036V4.50706L8.08852 4.79036L7.65177 4.03369L7.21431 4.79036L6.34082 4.50706V4.79036L6.77756 5.54702L6.34082 6.02039V6.30369H7.21431L7.65177 7.06035L8.08852 6.30369H8.96201V6.02039L8.52526 5.54702Z" fill="#455A82"/>
<path id="Vector_37" d="M8.52526 5.26357L8.96201 4.50691H8.08852L7.65177 3.75024L7.21431 4.50691H6.34082L6.77756 5.26357L6.34082 6.02024H7.21431L7.65177 6.77762L8.08852 6.02024H8.96201L8.52526 5.26357Z" fill="url(#paint7_radial_5244_31906)"/>
<path id="Vector_38" style="mix-blend-mode:screen" d="M6.93749 4.50708H6.34082L6.77756 5.26375L6.34082 6.02041H7.21431L7.65106 6.77707L8.0878 6.02041H8.21474C7.8576 5.42655 7.423 4.92235 6.93677 4.50708H6.93749Z" fill="url(#paint8_linear_5244_31906)"/>
<path id="Vector_39" style="mix-blend-mode:screen" d="M8.08769 4.50691L7.65095 3.75024L7.36768 4.24082C7.80657 4.58939 8.22037 4.97454 8.59902 5.39339L8.52444 5.26429L8.96119 4.50763H8.08769V4.50691Z" fill="url(#paint9_linear_5244_31906)"/>
<path id="Vector_40" d="M8.96773 6.02026H8.09424V6.30356H8.96773V6.02026Z" fill="#2E3E54"/>
<path id="Vector_41" d="M7.21431 6.30356L7.65177 7.06023V6.77765L7.21431 6.02026H6.34082V6.30356H7.21431Z" fill="#2E3E54"/>
<path id="Vector_42" d="M6.34082 4.50708L6.77756 5.26375L6.69581 5.40575L6.34082 4.79038V4.50708Z" fill="#2E3E54"/>
<g id="Vector_43" style="mix-blend-mode:multiply" opacity="0.35">
<path d="M6.34082 4.50708L6.93821 5.26375L6.34082 6.02041L6.77756 5.26375L6.34082 4.50708Z" fill="#455A82"/>
</g>
<g id="Vector_44" style="mix-blend-mode:screen" opacity="0.8">
<path d="M7.65479 3.75024L8.07576 4.5815L8.96503 4.50691H8.09153L7.65479 3.75024Z" fill="#F3FAFF"/>
</g>
<g id="Vector_45" style="mix-blend-mode:screen" opacity="0.5">
<path d="M6.34082 6.02047L7.29679 5.93799L7.65177 6.77785L7.21431 6.02047H6.34082Z" fill="#F3FAFF"/>
</g>
<g id="Vector_46" style="mix-blend-mode:multiply" opacity="0.35">
<path d="M7.65479 6.77784L8.03488 5.84546L8.96503 6.02046H8.09153L7.65479 6.77784Z" fill="#455A82"/>
</g>
<path id="Vector_47" opacity="0.5" d="M7.7067 5.95079C7.63355 6.07702 7.41841 6.08922 7.22549 5.97733C7.03258 5.86616 6.93505 5.67323 7.0082 5.547C7.08135 5.42077 7.29649 5.40858 7.4894 5.52046C7.68232 5.63235 7.77985 5.82456 7.7067 5.95079Z" fill="#E6FAFF"/>
</g>
</g>
<defs>
<radialGradient id="paint0_radial_5244_31906" cx="0" cy="0" r="1" gradientUnits="userSpaceOnUse" gradientTransform="translate(9.08842 -10.5287) scale(9.17309 9.17394)">
<stop offset="0.01" stop-color="#5C6CBA"/>
<stop offset="1" stop-color="#81B3D4"/>
</radialGradient>
<radialGradient id="paint1_radial_5244_31906" cx="0" cy="0" r="1" gradientUnits="userSpaceOnUse" gradientTransform="translate(10.7546 -0.382178) scale(12.6907 12.6919)">
<stop offset="0.01" stop-color="#5C6CBA"/>
<stop offset="1" stop-color="#81B3D4"/>
</radialGradient>
<linearGradient id="paint2_linear_5244_31906" x1="11.3017" y1="-1.28516" x2="5.54883" y2="5.81048" gradientUnits="userSpaceOnUse">
<stop stop-color="#9CD3DE"/>
<stop offset="0.19" stop-color="#98CDDA"/>
<stop offset="0.41" stop-color="#8CBED0"/>
<stop offset="0.66" stop-color="#79A6C0"/>
<stop offset="0.93" stop-color="#5F84AA"/>
<stop offset="1" stop-color="#5779A3"/>
</linearGradient>
<linearGradient id="paint3_linear_5244_31906" x1="2.14496" y1="10.2083" x2="7.17491" y2="3.90508" gradientUnits="userSpaceOnUse">
<stop stop-color="#42495E"/>
<stop offset="1" stop-color="#4A5780"/>
</linearGradient>
<linearGradient id="paint4_linear_5244_31906" x1="6.00352" y1="-10.5645" x2="6.00352" y2="-10.5645" gradientUnits="userSpaceOnUse">
<stop stop-color="#B4E6F7"/>
<stop offset="0.23" stop-color="#CCEEF9"/>
<stop offset="0.51" stop-color="#E3F7FC"/>
<stop offset="0.77" stop-color="#F2FCFE"/>
<stop offset="1" stop-color="#F7FEFF"/>
</linearGradient>
<radialGradient id="paint5_radial_5244_31906" cx="0" cy="0" r="1" gradientUnits="userSpaceOnUse" gradientTransform="translate(8.90343 1.36047) scale(10.786 10.787)">
<stop offset="0.01" stop-color="#5C6CBA"/>
<stop offset="1" stop-color="#81B3D4"/>
</radialGradient>
<linearGradient id="paint6_linear_5244_31906" x1="1.20337" y1="9.48369" x2="7.44979" y2="1.0103" gradientUnits="userSpaceOnUse">
<stop stop-color="#42495E"/>
<stop offset="1" stop-color="#4A5780"/>
</linearGradient>
<radialGradient id="paint7_radial_5244_31906" cx="0" cy="0" r="1" gradientUnits="userSpaceOnUse" gradientTransform="translate(8.90106 1.36047) scale(10.786 10.787)">
<stop offset="0.01" stop-color="#5C6CBA"/>
<stop offset="1" stop-color="#81B3D4"/>
</radialGradient>
<linearGradient id="paint8_linear_5244_31906" x1="3.12296" y1="10.9011" x2="9.37009" y2="2.42769" gradientUnits="userSpaceOnUse">
<stop stop-color="#42495E"/>
<stop offset="1" stop-color="#4A5780"/>
</linearGradient>
<linearGradient id="paint9_linear_5244_31906" x1="10.8817" y1="1.47881" x2="6.35747" y2="6.55344" gradientUnits="userSpaceOnUse">
<stop stop-color="#9CD3DE"/>
<stop offset="0.19" stop-color="#98CDDA"/>
<stop offset="0.41" stop-color="#8CBED0"/>
<stop offset="0.66" stop-color="#79A6C0"/>
<stop offset="0.93" stop-color="#5F84AA"/>
<stop offset="1" stop-color="#5779A3"/>
</linearGradient>
</defs>
</svg>
