<svg width="12" height="12" viewBox="0 0 12 12" fill="none" xmlns="http://www.w3.org/2000/svg">
<g id="icon" clip-path="url(#clip0_5244_32100)">
<g id="icon_2">
<path d="M5.99889 10.9474L11.2337 7.14437L9.234 0.99141H2.76378L0.764754 7.14437L5.99889 10.9474Z" fill="#54101A"/>
<path d="M9.42147 0.733887H2.57699L0.461914 7.24325L5.99889 11.266L11.5359 7.24325L9.42147 0.733887ZM1.55791 6.88684L3.25478 1.66507H8.74574L10.4426 6.88684L6.00095 10.1144L1.55791 6.88684Z" fill="url(#paint0_radial_5244_32100)"/>
<path d="M3.25153 1.66516L5.99702 10.1145L8.7425 1.66516H3.25153Z" fill="#8C1919"/>
<path d="M5.99904 6.96926L3.11759 5.55257V5.9282L5.99904 8.02199L8.88049 5.9282V5.55257L5.99904 6.96926Z" fill="#892334"/>
<path d="M9.42018 0.733887H2.57571L2.08677 2.23985C2.39098 2.25358 2.70618 2.29204 3.02894 2.35384L3.25281 1.66576H8.74377L10.4406 6.88753L9.7965 7.35587C9.9414 7.63742 10.0698 7.92859 10.1797 8.22868L11.5359 7.24325L9.42018 0.733887Z" fill="url(#paint1_radial_5244_32100)"/>
<path d="M9.42018 0.733887H2.57571L2.08677 2.23985C2.39098 2.25358 2.70618 2.29204 3.02894 2.35384L3.25281 1.66576H8.74377L10.4406 6.88753L9.7965 7.35587C9.9414 7.63742 10.0698 7.92859 10.1797 8.22868L11.5359 7.24325L9.42018 0.733887Z" fill="url(#paint2_linear_5244_32100)" style="mix-blend-mode:screen"/>
<path d="M9.04652 9.05216C9.01425 8.68958 8.96 8.34416 8.88721 8.0166L5.99957 10.1145L1.55791 6.88684L2.77545 3.1375C2.42935 3.14574 2.08874 3.18488 1.75843 3.25218L0.461914 7.24325L5.99889 11.266L9.04652 9.05216Z" fill="url(#paint3_linear_5244_32100)" style="mix-blend-mode:screen"/>
<path d="M1.5568 6.88693L1.99561 6.78873L3.52423 2.08268H8.47269L10.0013 6.78873L10.4406 6.88753L8.74377 1.66576H3.25281L1.5568 6.88693Z" fill="#9B1B2E"/>
<path d="M1.99427 6.7887L2.84992 4.59328C3.35671 3.29333 4.60859 2.72954 6.00399 2.72954C7.40489 2.72954 8.66158 3.30088 9.16356 4.60907L10.0013 6.78873L8.47136 2.08265H3.5229L1.99427 6.7887Z" fill="#892334"/>
<path d="M1.5568 6.88693L1.99561 6.78873L5.99846 9.69691L10.0013 6.78873L10.4406 6.88753L5.99846 10.1144L1.5568 6.88693Z" fill="url(#paint4_linear_5244_32100)"/>
<path d="M3.11759 5.05263V5.55257L5.99904 7.64635L8.88049 5.55257V5.05263L5.99904 7.14642L3.11759 5.05263Z" fill="#9B1B2E"/>
<path d="M1.99561 6.78873L3.56479 2.76044C3.64032 2.5661 3.8278 2.43768 4.03656 2.43768H7.98173C8.19118 2.43768 8.37934 2.56679 8.45419 2.7625L10.0013 6.78873L8.47136 2.08265H3.5229L1.99427 6.7887L1.99561 6.78873Z" fill="#892334"/>
<path d="M3.25153 1.66516L3.5229 2.08265H8.47136L8.7425 1.66516H3.25153Z" fill="#661625"/>
<path d="M5.99904 7.14642V7.64635L3.11759 5.55257V5.05263L5.99904 7.14642Z" fill="#661625"/>
<path d="M5.99904 6.09441L3.39296 4.20526L3.11759 5.05263L5.99904 7.14642L8.88049 5.05263L8.60512 4.20526L5.99904 6.09441Z" fill="url(#paint5_radial_5244_32100)"/>
<path d="M5.99904 7.14642L7.92596 5.74625C7.76389 5.50658 7.58741 5.28477 7.39993 5.07876L5.99904 6.09441L3.39296 4.20526L3.11759 5.05263L5.99904 7.14642Z" fill="url(#paint6_linear_5244_32100)" style="mix-blend-mode:screen"/>
<path d="M7.79413 4.79446C8.00701 4.98605 8.21165 5.18726 8.40805 5.3974L8.88257 5.05266L8.6072 4.20526L7.79413 4.79446Z" fill="url(#paint7_linear_5244_32100)" style="mix-blend-mode:screen"/>
<path d="M3.39296 4.20526L3.2872 4.78073C3.2666 4.89472 3.30987 5.01146 3.4012 5.08357L5.99904 7.14642L3.11759 5.05263L3.39296 4.20526Z" fill="#9B1B2E"/>
<path d="M1.22005 4.90849L0.689903 6.89446C0.6487 7.06546 0.729733 7.29276 0.871196 7.39851L5.99889 11.266L0.461914 7.24325L1.22005 4.90849Z" fill="#9B1B2E"/>
<path d="M1.99941 6.78868L5.81822 9.36111C5.91917 9.42909 6.08536 9.42909 6.1863 9.36111L10.0051 6.78868L6.00226 9.69691L1.99941 6.78868Z" fill="#892334"/>
<path d="M6.00039 11.2662L10.931 7.45764C11.2757 7.20218 11.3506 7.14655 11.1954 6.65693L10.1667 3.02284L11.538 7.24338L6.00039 11.2662Z" fill="#9B1B2E"/>
<path d="M1.34714 4.52523L2.50356 1.20909C2.62305 0.872603 2.71027 0.784017 3.06736 0.77097L6.00168 0.733887H2.57979L1.34714 4.52523Z" fill="#9B1B2E"/>
<path d="M3.55437 8.33661L6.00095 10.1144L9.3056 7.71376L6.00113 10.2656L3.55437 8.33661Z" fill="#FFF5CC"/>
<path d="M4.06105 4.68869L6.00033 6.0944L8.22665 4.48062L6.00033 6.26607L4.06105 4.68869Z" fill="#FFF5CC"/>
<path d="M5.81402 0.733887H9.42147L10.165 3.0227L9.28399 0.860929L5.81402 0.733887Z" fill="#FFF5CC"/>
<path d="M7.251 0.733887C7.22079 1.03055 7.35058 1.36223 7.60054 1.66576H8.74667L9.03028 2.53788C9.38943 2.62578 9.73279 2.62853 10.0143 2.55162L9.42377 0.734573L7.251 0.733887Z" fill="#FFF2BB"/>
<path d="M6.97248 1.25176C6.7335 1.07803 6.44508 1.06704 6.32834 1.22704C6.24525 1.34172 6.27271 1.5134 6.38328 1.66517H7.24098C7.22793 1.52508 7.13179 1.36713 6.97248 1.25176Z" fill="#FFF2BB"/>
<path d="M3.25766 8.12088C3.17113 8.34407 3.32771 8.67644 3.64291 8.90511C3.95811 9.13379 4.32275 9.18048 4.50748 9.02941L3.25766 8.12088Z" fill="#FFF2BB"/>
<path d="M4.51254 9.63718C4.45966 9.71821 4.31339 9.71683 4.18635 9.63374C4.05862 9.55065 3.99819 9.41743 4.05107 9.3364C4.10394 9.25536 4.25021 9.25673 4.37725 9.33983C4.5043 9.42292 4.56541 9.55614 4.51254 9.63718Z" fill="#FFF2BB"/>
<path d="M7.64271 5.95222L8.58351 5.14327C8.68377 5.05743 8.73115 4.92489 8.70849 4.79442L8.60617 4.20453L8.88154 5.05194L7.64271 5.95222Z" fill="#9B1B2E"/>
</g>
</g>
<defs>
<radialGradient id="paint0_radial_5244_32100" cx="0" cy="0" r="1" gradientUnits="userSpaceOnUse" gradientTransform="translate(8.9603 -9.88765) scale(8.78549 8.78387)">
<stop offset="0.01" stop-color="#E85621"/>
<stop offset="1" stop-color="#E33A0B"/>
</radialGradient>
<radialGradient id="paint1_radial_5244_32100" cx="0" cy="0" r="1" gradientUnits="userSpaceOnUse" gradientTransform="translate(10.3893 -0.452127) scale(14.2455 17.0771)">
<stop offset="0.01" stop-color="#E85621"/>
<stop offset="1" stop-color="#E33A0B"/>
</radialGradient>
<linearGradient id="paint2_linear_5244_32100" x1="11.0035" y1="-1.66806" x2="3.09602" y2="6.46962" gradientUnits="userSpaceOnUse">
<stop stop-color="#FFA369"/>
<stop offset="0.13" stop-color="#FD9D65"/>
<stop offset="0.29" stop-color="#F98E5C"/>
<stop offset="0.47" stop-color="#F3764C"/>
<stop offset="0.65" stop-color="#EA5335"/>
<stop offset="0.85" stop-color="#DE2819"/>
<stop offset="1" stop-color="#D40000"/>
</linearGradient>
<linearGradient id="paint3_linear_5244_32100" x1="2.84531" y1="9.66442" x2="9.09175" y2="1.8698" gradientUnits="userSpaceOnUse">
<stop stop-color="#D40000"/>
<stop offset="1" stop-color="#FFAF47"/>
</linearGradient>
<linearGradient id="paint4_linear_5244_32100" x1="5.99955" y1="-52.1862" x2="5.99955" y2="-52.1862" gradientUnits="userSpaceOnUse">
<stop offset="0.63" stop-color="#F7814A"/>
<stop offset="1" stop-color="#F7E399"/>
</linearGradient>
<radialGradient id="paint5_radial_5244_32100" cx="0" cy="0" r="1" gradientUnits="userSpaceOnUse" gradientTransform="translate(9.97535 -1.63913) scale(9.77741 18.2169)">
<stop offset="0.01" stop-color="#E85621"/>
<stop offset="1" stop-color="#E33A0B"/>
</radialGradient>
<linearGradient id="paint6_linear_5244_32100" x1="-2.32215" y1="20.323" x2="14.8939" y2="6.44216" gradientUnits="userSpaceOnUse">
<stop stop-color="#D40000"/>
<stop offset="1" stop-color="#FFAF47"/>
</linearGradient>
<linearGradient id="paint7_linear_5244_32100" x1="39.0362" y1="-28.2966" x2="0.369851" y2="26.6417" gradientUnits="userSpaceOnUse">
<stop stop-color="#FFA369"/>
<stop offset="0.13" stop-color="#FD9D65"/>
<stop offset="0.29" stop-color="#F98E5C"/>
<stop offset="0.47" stop-color="#F3764C"/>
<stop offset="0.65" stop-color="#EA5335"/>
<stop offset="0.85" stop-color="#DE2819"/>
<stop offset="1" stop-color="#D40000"/>
</linearGradient>
<clipPath id="clip0_5244_32100">
<rect width="12" height="12" fill="white"/>
</clipPath>
</defs>
</svg>
