<svg width="24" height="24" viewBox="0 0 24 24" fill="none" xmlns="http://www.w3.org/2000/svg">
<g id="base">
<g filter="url(#filter0_i_5328_33086)">
<path d="M4.33137 0.468629L0.468629 4.33137C0.295677 4.50432 0.209202 4.5908 0.14736 4.69172C0.0925311 4.78119 0.0521268 4.87873 0.0276301 4.98077C0 5.09586 0 5.21815 0 5.46274V18.5373C0 18.7818 0 18.9041 0.0276301 19.0192C0.0521268 19.1213 0.0925311 19.2188 0.14736 19.3083C0.2092 19.4092 0.295673 19.4957 0.468616 19.6686L0.468629 19.6686L4.33137 23.5314L4.3314 23.5314C4.50433 23.7043 4.5908 23.7908 4.69172 23.8526C4.78119 23.9075 4.87873 23.9479 4.98077 23.9724C5.09586 24 5.21815 24 5.46274 24H18.5373C18.7818 24 18.9041 24 19.0192 23.9724C19.1213 23.9479 19.2188 23.9075 19.3083 23.8526C19.4092 23.7908 19.4957 23.7043 19.6686 23.5314L19.6686 23.5314L23.5314 19.6686L23.5314 19.6686C23.7043 19.4957 23.7908 19.4092 23.8526 19.3083C23.9075 19.2188 23.9479 19.1213 23.9724 19.0192C24 18.9041 24 18.7818 24 18.5373V5.46274C24 5.21815 24 5.09586 23.9724 4.98077C23.9479 4.87873 23.9075 4.78119 23.8526 4.69172C23.7908 4.5908 23.7043 4.50433 23.5314 4.3314L23.5314 4.33137L19.6686 0.468629L19.6686 0.468617C19.4957 0.295673 19.4092 0.2092 19.3083 0.14736C19.2188 0.0925311 19.1213 0.0521268 19.0192 0.0276301C18.9041 0 18.7818 0 18.5373 0H5.46274C5.21815 0 5.09586 0 4.98077 0.0276301C4.87873 0.0521268 4.78119 0.0925311 4.69172 0.14736C4.5908 0.209202 4.50432 0.295678 4.33137 0.468629Z" fill="url(#paint0_linear_5328_33086)"/>
</g>
<path d="M5.46289 0.5H18.5371C18.6711 0.5 18.7515 0.500809 18.8037 0.50293L18.9023 0.513672C18.928 0.519826 18.9533 0.528009 18.9775 0.538086L19.0469 0.573242C19.085 0.596609 19.1242 0.631201 19.3066 0.813477L19.3086 0.816406L19.3154 0.822266L23.1572 4.66406L23.167 4.6748L23.1777 4.68457C23.2727 4.77958 23.3288 4.83753 23.3643 4.87598L23.4268 4.95312C23.4403 4.97529 23.452 4.99854 23.4619 5.02246L23.4863 5.09766C23.4969 5.14178 23.5 5.19488 23.5 5.46289V18.5371C23.5 18.6711 23.4992 18.7515 23.4971 18.8037L23.4863 18.9023C23.4802 18.928 23.472 18.9533 23.4619 18.9775L23.4268 19.0469C23.4149 19.0662 23.3996 19.0857 23.3643 19.124L23.1777 19.3154L19.3154 23.1777C19.2204 23.2727 19.1625 23.3288 19.124 23.3643L19.0469 23.4268C19.0247 23.4403 19.0015 23.452 18.9775 23.4619L18.9023 23.4863C18.8582 23.4969 18.8051 23.5 18.5371 23.5H5.46289C5.32892 23.5 5.24854 23.4992 5.19629 23.4971L5.09766 23.4863C5.07202 23.4802 5.04673 23.472 5.02246 23.4619L4.95312 23.4268C4.93379 23.4149 4.91431 23.3996 4.87598 23.3643L4.68457 23.1777L4.6748 23.167L4.66406 23.1572L0.822266 19.3154C0.727243 19.2204 0.671169 19.1625 0.635742 19.124L0.573242 19.0469C0.559683 19.0247 0.548016 19.0015 0.538086 18.9775L0.513672 18.9023C0.503106 18.8582 0.5 18.8051 0.5 18.5371V5.46289C0.5 5.32892 0.500809 5.24854 0.50293 5.19629L0.513672 5.09766C0.519826 5.07202 0.528009 5.04674 0.538086 5.02246L0.573242 4.95312C0.585089 4.93379 0.600418 4.91431 0.635742 4.87598L0.822266 4.68457L4.68457 0.822266C4.7796 0.727237 4.83753 0.67117 4.87598 0.635742L4.95312 0.573242C4.97529 0.559683 4.99854 0.548017 5.02246 0.538086L5.09766 0.513672C5.14178 0.503106 5.19488 0.5 5.46289 0.5Z" stroke="url(#paint1_linear_5328_33086)"/>
</g>
<defs>
<filter id="filter0_i_5328_33086" x="0" y="0" width="24" height="32" filterUnits="userSpaceOnUse" color-interpolation-filters="sRGB">
<feFlood flood-opacity="0" result="BackgroundImageFix"/>
<feBlend mode="normal" in="SourceGraphic" in2="BackgroundImageFix" result="shape"/>
<feColorMatrix in="SourceAlpha" type="matrix" values="0 0 0 0 0 0 0 0 0 0 0 0 0 0 0 0 0 0 127 0" result="hardAlpha"/>
<feOffset dy="8"/>
<feGaussianBlur stdDeviation="10"/>
<feComposite in2="hardAlpha" operator="arithmetic" k2="-1" k3="1"/>
<feColorMatrix type="matrix" values="0 0 0 0 0 0 0 0 0 0 0 0 0 0 0 0 0 0 1 0"/>
<feBlend mode="normal" in2="shape" result="effect1_innerShadow_5328_33086"/>
</filter>
<linearGradient id="paint0_linear_5328_33086" x1="-2.09619e-09" y1="1.48" x2="24" y2="24" gradientUnits="userSpaceOnUse">
<stop stop-color="#E9B1CD"/>
<stop offset="1" stop-color="#410021"/>
</linearGradient>
<linearGradient id="paint1_linear_5328_33086" x1="12" y1="0" x2="12" y2="24" gradientUnits="userSpaceOnUse">
<stop stop-color="#E9B1CD"/>
<stop offset="1" stop-color="#E9B1CD" stop-opacity="0"/>
</linearGradient>
</defs>
</svg>
