<svg width="24" height="24" viewBox="0 0 24 24" fill="none" xmlns="http://www.w3.org/2000/svg">
<g filter="url(#filter0_i_8005_3170)">
<path d="M4.33137 0.468629L0.468629 4.33137C0.295677 4.50432 0.209202 4.5908 0.14736 4.69172C0.0925311 4.78119 0.0521268 4.87873 0.0276301 4.98077C0 5.09586 0 5.21815 0 5.46274V18.5373C0 18.7818 0 18.9041 0.0276301 19.0192C0.0521268 19.1213 0.0925311 19.2188 0.14736 19.3083C0.2092 19.4092 0.295673 19.4957 0.468616 19.6686L0.468629 19.6686L4.33137 23.5314L4.3314 23.5314C4.50433 23.7043 4.5908 23.7908 4.69172 23.8526C4.78119 23.9075 4.87873 23.9479 4.98077 23.9724C5.09586 24 5.21815 24 5.46274 24H18.5373C18.7818 24 18.9041 24 19.0192 23.9724C19.1213 23.9479 19.2188 23.9075 19.3083 23.8526C19.4092 23.7908 19.4957 23.7043 19.6686 23.5314L19.6686 23.5314L23.5314 19.6686L23.5314 19.6686C23.7043 19.4957 23.7908 19.4092 23.8526 19.3083C23.9075 19.2188 23.9479 19.1213 23.9724 19.0192C24 18.9041 24 18.7818 24 18.5373V5.46274C24 5.21815 24 5.09586 23.9724 4.98077C23.9479 4.87873 23.9075 4.78119 23.8526 4.69172C23.7908 4.5908 23.7043 4.50433 23.5314 4.3314L23.5314 4.33137L19.6686 0.468629L19.6686 0.468617C19.4957 0.295673 19.4092 0.2092 19.3083 0.14736C19.2188 0.0925311 19.1213 0.0521268 19.0192 0.0276301C18.9041 0 18.7818 0 18.5373 0H5.46274C5.21815 0 5.09586 0 4.98077 0.0276301C4.87873 0.0521268 4.78119 0.0925311 4.69172 0.14736C4.5908 0.209202 4.50432 0.295678 4.33137 0.468629Z" fill="url(#paint0_linear_8005_3170)"/>
</g>
<path d="M5.46289 0.5H18.5371C18.8051 0.5 18.8582 0.503106 18.9023 0.513672C18.9532 0.525891 19.0022 0.545924 19.0469 0.573242C19.085 0.596609 19.1242 0.631201 19.3066 0.813477L19.3086 0.816406L19.3154 0.822266L23.1572 4.66406L23.167 4.6748L23.1777 4.68457C23.3675 4.87434 23.403 4.91441 23.4268 4.95312C23.4541 4.99777 23.4741 5.04676 23.4863 5.09766C23.4969 5.14178 23.5 5.19488 23.5 5.46289V18.5371C23.5 18.8051 23.4969 18.8582 23.4863 18.9023C23.4741 18.9532 23.4541 19.0022 23.4268 19.0469C23.403 19.0856 23.3675 19.1257 23.1777 19.3154L19.3154 23.1777C19.1257 23.3675 19.0856 23.403 19.0469 23.4268C19.0022 23.4541 18.9532 23.4741 18.9023 23.4863C18.8582 23.4969 18.8051 23.5 18.5371 23.5H5.46289C5.19488 23.5 5.14178 23.4969 5.09766 23.4863C5.04676 23.4741 4.99777 23.4541 4.95312 23.4268C4.91441 23.403 4.87434 23.3675 4.68457 23.1777L4.6748 23.167L4.66406 23.1572L0.822266 19.3154C0.632494 19.1257 0.59697 19.0856 0.573242 19.0469C0.545924 19.0022 0.525891 18.9532 0.513672 18.9023C0.503106 18.8582 0.5 18.8051 0.5 18.5371V5.46289C0.5 5.19488 0.503106 5.14178 0.513672 5.09766C0.525892 5.04676 0.545925 4.99778 0.573242 4.95312C0.596971 4.9144 0.632485 4.87435 0.822266 4.68457L4.68457 0.822266C4.87435 0.632485 4.9144 0.596971 4.95312 0.573242C4.99778 0.545925 5.04676 0.525892 5.09766 0.513672C5.14178 0.503106 5.19488 0.5 5.46289 0.5Z" stroke="url(#paint1_linear_8005_3170)" stroke-opacity="0.25"/>
<g opacity="0.8">
<path d="M17.8332 12.0515C17.834 13.1983 17.4968 14.32 16.8637 15.2762C16.2306 16.2324 15.3296 16.9809 14.2735 17.4279C13.2174 17.8749 12.0529 18.0007 10.9257 17.7896C9.79848 17.5785 8.75848 17.0398 7.93572 16.2409C7.11295 15.442 6.54392 14.4183 6.29976 13.2977C6.0556 12.1772 6.14713 11.0095 6.56292 9.94074C6.97872 8.87194 7.70032 7.9494 8.63753 7.28845C9.57473 6.6275 10.686 6.25745 11.8323 6.22457C11.9426 6.2103 12.0543 6.2103 12.1646 6.22457C13.682 6.26677 15.1231 6.89904 16.1816 7.98701C17.2401 9.07497 17.8326 10.5336 17.8332 12.0515ZM10.047 16.67C10.1717 16.7226 10.2982 16.77 10.4264 16.8123C9.66219 15.4859 9.26256 13.9809 9.26812 12.4501H6.99865C7.07269 13.3649 7.39597 14.2419 7.93339 14.9859C8.4708 15.7298 9.20179 16.3123 10.047 16.67ZM7.37665 10.1004C7.16994 10.5883 7.04282 11.1063 7.00012 11.6345H9.26812C9.26352 10.1129 9.65727 8.61666 10.4102 7.29446C10.2879 7.33523 10.1668 7.38092 10.047 7.43152C8.84443 7.94117 7.88696 8.89811 7.37665 10.1004ZM13.9124 11.6345C13.8943 11.0628 13.83 10.4936 13.7201 9.93236C13.6127 9.35814 13.4363 8.79901 13.1948 8.26709C12.8654 7.56562 12.4513 7.10804 12.0917 7.03878C12.0296 7.03785 11.9674 7.03785 11.9053 7.03878C11.5457 7.10804 11.1316 7.56562 10.8022 8.26783C10.561 8.79978 10.3848 9.35891 10.2776 9.93309C10.1678 10.4941 10.1035 11.0631 10.0853 11.6345H13.9124ZM13.1948 15.8168C13.4363 15.2849 13.6127 14.7257 13.7201 14.1515C13.8297 13.5905 13.8937 13.0215 13.9117 12.4501H10.086C10.1042 13.0218 10.1685 13.591 10.2783 14.1523C10.3856 14.7262 10.5617 15.2851 10.803 15.8168C11.1618 16.5801 11.6201 17.0547 11.9996 17.0547C12.3791 17.0547 12.8374 16.5801 13.1955 15.8168H13.1948ZM16.6225 14.0027C16.8316 13.509 16.9592 12.9847 17.0005 12.4501H14.7296C14.7355 13.9814 14.3358 15.487 13.5713 16.8137C13.6995 16.7715 13.8265 16.7238 13.9522 16.6708C15.1546 16.1613 16.1121 15.2046 16.6225 14.0027ZM13.9522 7.43152C13.8322 7.38087 13.7103 7.3349 13.5868 7.29373C14.3398 8.61589 14.7335 10.1122 14.7289 11.6337H16.9991C16.9221 10.7222 16.5977 9.84901 16.0607 9.10843C15.5237 8.36784 14.7947 7.78801 13.9522 7.43152Z" fill="white"/>
</g>
<defs>
<filter id="filter0_i_8005_3170" x="0" y="0" width="24" height="32" filterUnits="userSpaceOnUse" color-interpolation-filters="sRGB">
<feFlood flood-opacity="0" result="BackgroundImageFix"/>
<feBlend mode="normal" in="SourceGraphic" in2="BackgroundImageFix" result="shape"/>
<feColorMatrix in="SourceAlpha" type="matrix" values="0 0 0 0 0 0 0 0 0 0 0 0 0 0 0 0 0 0 127 0" result="hardAlpha"/>
<feOffset dy="8"/>
<feGaussianBlur stdDeviation="10"/>
<feComposite in2="hardAlpha" operator="arithmetic" k2="-1" k3="1"/>
<feColorMatrix type="matrix" values="0 0 0 0 0 0 0 0 0 0 0 0 0 0 0 0 0 0 1 0"/>
<feBlend mode="normal" in2="shape" result="effect1_innerShadow_8005_3170"/>
</filter>
<linearGradient id="paint0_linear_8005_3170" x1="0" y1="0" x2="24.0451" y2="0.0452222" gradientUnits="userSpaceOnUse">
<stop/>
<stop offset="1" stop-color="#111111"/>
</linearGradient>
<linearGradient id="paint1_linear_8005_3170" x1="12" y1="0" x2="12" y2="24" gradientUnits="userSpaceOnUse">
<stop stop-color="white"/>
<stop offset="1" stop-color="white" stop-opacity="0"/>
</linearGradient>
</defs>
</svg>
