<svg width="12" height="12" viewBox="0 0 12 12" fill="none" xmlns="http://www.w3.org/2000/svg">
<g id="Group">
<g id="Group_2">
<path id="Vector" d="M5.99721 11.1673L11.4634 7.19532L9.37577 0.769043H2.61865L0.530273 7.19532L5.99721 11.1673Z" fill="#31414C"/>
<path id="Vector_2" d="M9.57217 0.5H2.4242L0.215332 7.29851L5.99783 11.5L11.7803 7.29851L9.57146 0.5H9.57217ZM1.35921 6.92627L3.13132 1.47255H8.86576L10.6379 6.92627L5.99926 10.2972L1.35993 6.92627H1.35921Z" fill="url(#paint0_radial_5244_31828)"/>
<g id="Vector_3" style="mix-blend-mode:multiply" opacity="0.2">
<path d="M3.13086 1.47266L5.99808 10.2973L8.8653 1.47266H3.13086Z" fill="#0C363D"/>
</g>
<path id="Vector_4" d="M9.56875 0.5H2.42078L1.91016 2.07286C2.22786 2.0872 2.55704 2.12737 2.89411 2.19192L3.1279 1.47326H8.86234L10.6345 6.92699L9.96176 7.41613C10.1131 7.71019 10.2472 8.01429 10.3619 8.32772L11.7776 7.29923L9.56875 0.500717V0.5Z" fill="url(#paint1_radial_5244_31828)"/>
<path id="Vector_5" style="mix-blend-mode:screen" d="M9.56875 0.5H2.42078L1.91016 2.07286C2.22786 2.0872 2.55704 2.12737 2.89411 2.19192L3.1279 1.47326H8.86234L10.6345 6.92699L9.96176 7.41613C10.1131 7.71019 10.2472 8.01429 10.3619 8.32772L11.7776 7.29923L9.56875 0.500717V0.5Z" fill="url(#paint2_linear_5244_31828)"/>
<path id="Vector_6" style="mix-blend-mode:screen" d="M9.1806 9.18765C9.14689 8.80896 9.09024 8.4482 9.01422 8.10609L5.99854 10.2972L1.35921 6.92626L2.63146 3.01025C2.27001 3.01886 1.91429 3.05974 1.56934 3.13003L0.215332 7.29778L5.99783 11.4992L9.17988 9.18693L9.1806 9.18765Z" fill="url(#paint3_linear_5244_31828)"/>
<path id="Vector_7" d="M1.36377 6.92638L1.82204 6.82382L3.41916 1.90872H8.58704L10.1835 6.82382L10.6417 6.92638L8.87032 1.47266H3.13588L1.36377 6.92638Z" fill="#455A82"/>
<g id="Vector_8" style="mix-blend-mode:multiply" opacity="0.2">
<path d="M1.81712 6.82379L2.71071 4.53084C3.23997 3.17315 4.54737 2.58431 6.00465 2.58431C7.46766 2.58431 8.78007 3.18104 9.30431 4.54734L10.1785 6.82379L8.58142 1.90869H3.41353L1.81641 6.82379H1.81712Z" fill="#2753A0"/>
</g>
<path id="Vector_9" d="M1.36377 6.92629L1.82204 6.82373L6.0031 9.86115L10.1835 6.82373L10.6417 6.92629L6.0031 10.2972L1.36377 6.92629Z" fill="url(#paint4_linear_5244_31828)"/>
<g id="Vector_10" style="mix-blend-mode:multiply" opacity="0.6">
<path d="M1.81784 6.82379L3.45728 2.61659C3.53617 2.41361 3.73195 2.27949 3.94997 2.27949H8.07008C8.28881 2.27949 8.48532 2.41433 8.56349 2.61874L10.1785 6.82379L8.58142 1.90869H3.41353L1.81641 6.82379H1.81784Z" fill="#2753A0"/>
</g>
<path id="Vector_11" d="M3.13086 1.47266L3.41414 1.90872H8.58202L8.8653 1.47266H3.13086Z" fill="#2E3E54"/>
<g id="Vector_12" style="mix-blend-mode:multiply" opacity="0.35">
<path d="M1.00708 4.85986L0.453431 6.93406C0.410401 7.11264 0.495028 7.35004 0.642763 7.4605L5.99783 11.4999L0.215332 7.2984L1.0078 4.86058L1.00708 4.85986Z" fill="#455A82"/>
</g>
<g id="Vector_13" style="mix-blend-mode:multiply" opacity="0.6">
<path d="M1.82373 6.82373L5.81188 9.51043C5.9173 9.58143 6.09085 9.58143 6.19628 9.51043L10.1844 6.82373L6.00408 9.86115L1.82373 6.82373Z" fill="#2753A0"/>
</g>
<g id="Vector_14" style="mix-blend-mode:multiply" opacity="0.35">
<path d="M6.00146 11.5001L11.1507 7.52242C11.5107 7.25561 11.5889 7.19752 11.4268 6.68614L10.3525 2.89062L11.7847 7.29865L6.00218 11.5001H6.00146Z" fill="#455A82"/>
</g>
<path id="Vector_15" d="M3.44531 8.44031L6.00057 10.2972L9.45156 7.78979L6.00057 10.455L3.44531 8.44031Z" fill="#F3FEFF"/>
<path id="Vector_16" d="M5.8042 0.5H9.57146L10.3481 2.89049L9.42803 0.632685L5.8042 0.5Z" fill="#F3FEFF"/>
<g id="Vector_17" style="mix-blend-mode:screen">
<path d="M7.30284 0.5C7.27129 0.809838 7.40683 1.15625 7.66788 1.47255H8.86483L9.16101 2.38341C9.53609 2.47522 9.89467 2.47809 10.1887 2.39776L9.57195 0.5H7.30356H7.30284Z" fill="white"/>
</g>
<g id="Vector_18" style="mix-blend-mode:screen">
<path d="M3.13451 8.21436C3.04414 8.44745 3.20766 8.79459 3.53684 9.03342C3.86602 9.27225 4.24683 9.32102 4.43975 9.16324L3.13379 8.21436H3.13451Z" fill="white"/>
</g>
<g id="Vector_19" style="mix-blend-mode:screen">
<path d="M4.4526 9.79876C4.39738 9.88339 4.24462 9.88196 4.11195 9.79518C3.97856 9.70839 3.91545 9.56925 3.97067 9.48462C4.02589 9.39999 4.17865 9.40142 4.31132 9.48821C4.44472 9.57499 4.50782 9.71413 4.4526 9.79876Z" fill="white"/>
</g>
<g id="Vector_20" style="mix-blend-mode:multiply" opacity="0.35">
<path d="M1.14209 4.45976L2.3498 0.996315C2.47458 0.644878 2.56566 0.552356 2.93787 0.538729L6.00231 0.5H2.42868L1.14209 4.45976Z" fill="#455A82"/>
</g>
<g id="Vector_21" style="mix-blend-mode:screen">
<path d="M7.08068 1.04073C6.8311 0.859269 6.52989 0.847794 6.40798 1.01491C6.3212 1.13468 6.34988 1.31399 6.46535 1.47249H7.36108C7.34746 1.32618 7.24634 1.16122 7.07996 1.04073H7.08068Z" fill="white"/>
</g>
<g id="Group_3">
<g id="Vector_22" style="mix-blend-mode:multiply" opacity="0.6">
<path d="M7.46726 6.14738L8.20666 4.86715V4.47555L6.72858 4.86715L5.98918 3.58691L5.24979 4.86715L3.771 4.47555V4.86715L4.51039 6.14738L3.771 7.03602V7.42833H5.24979L5.98918 8.70857L6.72858 7.42833H8.20666V7.03602L7.46726 6.14738Z" fill="#2753A0"/>
</g>
<path id="Vector_23" d="M7.46726 5.75577L8.20666 4.47553V3.99643L6.72858 4.47553L5.98918 3.19458L5.24979 4.47553L3.771 3.99643V4.47553L4.51039 5.75577L3.771 6.55762V7.036H5.24979L5.98918 8.31695L6.72858 7.036H8.20666V6.55762L7.46726 5.75577Z" fill="#455A82"/>
<path id="Vector_24" d="M7.46726 5.27653L8.20666 3.9963H6.72858L5.98918 2.71606L5.24979 3.9963H3.771L4.51039 5.27653L3.771 6.55748H5.24979L5.98918 7.83772L6.72858 6.55748H8.20666L7.46726 5.27653Z" fill="url(#paint5_radial_5244_31828)"/>
<path id="Vector_25" d="M8.2034 6.55737H6.72461V7.03648H8.2034V6.55737Z" fill="#2E3E54"/>
<path id="Vector_26" d="M5.24979 7.03576L5.98918 8.31671V7.83761L5.24979 6.55737H3.771V7.03576H5.24979Z" fill="#2E3E54"/>
<path id="Vector_27" style="mix-blend-mode:screen" d="M5.4843 3.59009L5.24979 3.99603H3.771L4.51039 5.27627L3.771 6.5565H5.24979L5.98918 7.83674L6.72858 6.5565H8.20737L7.46798 5.27627L7.55045 5.13354C6.95807 4.45505 6.24808 3.94224 5.48502 3.59009H5.4843Z" fill="url(#paint6_linear_5244_31828)"/>
<path id="Vector_28" d="M3.771 3.99634L4.51039 5.27657L4.37198 5.51612L3.771 4.47544V3.99634Z" fill="#2E3E54"/>
<g id="Vector_29" style="mix-blend-mode:multiply" opacity="0.35">
<path d="M3.771 3.99634L4.63948 5.09655C4.73845 5.22924 4.76857 5.27657 4.63948 5.45659L3.771 6.55681L4.51039 5.27657L3.771 3.99634Z" fill="#455A82"/>
</g>
<g id="Vector_30" style="mix-blend-mode:screen" opacity="0.8">
<path d="M5.99121 2.71606L6.70407 4.12181L8.20869 3.9963H6.73061L5.99121 2.71606Z" fill="#F3FAFF"/>
</g>
<g id="Vector_31" style="mix-blend-mode:screen" opacity="0.5">
<path d="M3.771 6.55758L5.38892 6.41772L5.98918 7.83782L5.24979 6.55758H3.771Z" fill="#F3FAFF"/>
</g>
<g id="Vector_32" style="mix-blend-mode:multiply" opacity="0.35">
<path d="M5.99121 7.83774L6.56853 6.42482C6.63164 6.28998 6.71412 6.27564 6.81022 6.29357L8.2094 6.5575H6.73061L5.99121 7.83774Z" fill="#455A82"/>
</g>
<path id="Vector_33" style="mix-blend-mode:screen" d="M7.83132 4.64829L8.20783 3.99634H7.02881C7.30563 4.20003 7.57385 4.41734 7.83132 4.64829Z" fill="url(#paint7_linear_5244_31828)"/>
<path id="Vector_34" style="mix-blend-mode:screen" d="M6.53047 3.65132L5.99044 2.71606L5.7251 3.1758C5.99834 3.3214 6.26727 3.48062 6.53047 3.65132Z" fill="url(#paint8_linear_5244_31828)"/>
<path id="Vector_35" opacity="0.5" d="M6.52927 5.22568C6.41452 5.42435 6.07459 5.44371 5.77051 5.268C5.46643 5.09228 5.31296 4.78889 5.42771 4.58951C5.54245 4.39084 5.88239 4.37147 6.18647 4.54719C6.49054 4.72291 6.64402 5.02629 6.52927 5.22568Z" fill="#E6FAFF"/>
<path id="Vector_36" opacity="0.5" d="M5.42751 5.34678C5.39094 5.41061 5.26974 5.40918 5.15714 5.34463C5.04455 5.27936 4.98287 5.17536 5.02016 5.11153C5.05745 5.0477 5.17794 5.04913 5.29053 5.11368C5.40313 5.17895 5.4648 5.28295 5.42751 5.34678Z" fill="#E6FAFF"/>
</g>
</g>
</g>
<defs>
<radialGradient id="paint0_radial_5244_31828" cx="0" cy="0" r="1" gradientUnits="userSpaceOnUse" gradientTransform="translate(9.08809 0.867216) scale(9.17325 9.17394)">
<stop offset="0.01" stop-color="#5C6CBA"/>
<stop offset="1" stop-color="#81B3D4"/>
</radialGradient>
<radialGradient id="paint1_radial_5244_31828" cx="0" cy="0" r="1" gradientUnits="userSpaceOnUse" gradientTransform="translate(10.7535 -0.382178) scale(12.6909 12.6919)">
<stop offset="0.01" stop-color="#5C6CBA"/>
<stop offset="1" stop-color="#81B3D4"/>
</radialGradient>
<linearGradient id="paint2_linear_5244_31828" x1="11.3014" y1="-1.28516" x2="5.54853" y2="5.81058" gradientUnits="userSpaceOnUse">
<stop stop-color="#9CD3DE"/>
<stop offset="0.19" stop-color="#98CDDA"/>
<stop offset="0.41" stop-color="#8CBED0"/>
<stop offset="0.66" stop-color="#79A6C0"/>
<stop offset="0.93" stop-color="#5F84AA"/>
<stop offset="1" stop-color="#5779A3"/>
</linearGradient>
<linearGradient id="paint3_linear_5244_31828" x1="2.1445" y1="10.2083" x2="7.17372" y2="3.90499" gradientUnits="userSpaceOnUse">
<stop stop-color="#42495E"/>
<stop offset="1" stop-color="#4A5780"/>
</linearGradient>
<linearGradient id="paint4_linear_5244_31828" x1="6.0031" y1="6.01973" x2="6.0031" y2="7.93614" gradientUnits="userSpaceOnUse">
<stop stop-color="#B4E6F7"/>
<stop offset="0.23" stop-color="#CCEEF9"/>
<stop offset="0.51" stop-color="#E3F7FC"/>
<stop offset="0.77" stop-color="#F2FCFE"/>
<stop offset="1" stop-color="#F7FEFF"/>
</linearGradient>
<radialGradient id="paint5_radial_5244_31828" cx="0" cy="0" r="1" gradientUnits="userSpaceOnUse" gradientTransform="translate(9.88841 0.694945) scale(10.472 10.4728)">
<stop offset="0.01" stop-color="#5C6CBA"/>
<stop offset="1" stop-color="#81B3D4"/>
</radialGradient>
<linearGradient id="paint6_linear_5244_31828" x1="3.6792" y1="8.76051" x2="7.91593" y2="2.37111" gradientUnits="userSpaceOnUse">
<stop stop-color="#42495E"/>
<stop offset="1" stop-color="#4A5780"/>
</linearGradient>
<linearGradient id="paint7_linear_5244_31828" x1="10.634" y1="-0.472645" x2="5.57029" y2="7.10513" gradientUnits="userSpaceOnUse">
<stop stop-color="#9CD3DE"/>
<stop offset="0.19" stop-color="#98CDDA"/>
<stop offset="0.41" stop-color="#8CBED0"/>
<stop offset="0.66" stop-color="#79A6C0"/>
<stop offset="0.93" stop-color="#5F84AA"/>
<stop offset="1" stop-color="#5779A3"/>
</linearGradient>
<linearGradient id="paint8_linear_5244_31828" x1="9.29944" y1="-1.36491" x2="4.23573" y2="6.21286" gradientUnits="userSpaceOnUse">
<stop stop-color="#9CD3DE"/>
<stop offset="0.19" stop-color="#98CDDA"/>
<stop offset="0.41" stop-color="#8CBED0"/>
<stop offset="0.66" stop-color="#79A6C0"/>
<stop offset="0.93" stop-color="#5F84AA"/>
<stop offset="1" stop-color="#5779A3"/>
</linearGradient>
</defs>
</svg>
