<svg width="12" height="12" viewBox="0 0 12 12" fill="none" xmlns="http://www.w3.org/2000/svg">
<g id="Group">
<g id="Group_2">
<path id="Vector" d="M5.997 11.1673L11.4632 7.19532L9.37557 0.769043H2.61843L0.530762 7.19532L5.997 11.1673Z" fill="#31414C"/>
<g id="Vector_2" style="mix-blend-mode:multiply" opacity="0.2">
<path d="M3.13818 1.47266L6.00542 10.2973L8.87265 1.47266H3.13818Z" fill="#0C363D"/>
</g>
<path id="Vector_3" d="M9.57269 0.5H2.4247L0.21582 7.29851L5.99833 11.5L11.7808 7.29851L9.57197 0.5H9.57269ZM1.3597 6.92627L3.13182 1.47255H8.86628L10.6384 6.92627L5.99977 10.2972L1.36042 6.92627H1.3597Z" fill="url(#paint0_radial_5244_31995)"/>
<path id="Vector_4" d="M9.56926 0.5H2.42127L1.91064 2.07286C2.22835 2.0872 2.55753 2.12737 2.89459 2.19192L3.12839 1.47326H8.86285L10.635 6.92699L9.96227 7.41613C10.1136 7.71019 10.2477 8.01429 10.3625 8.32772L11.7781 7.29923L9.56926 0.500717V0.5Z" fill="url(#paint1_radial_5244_31995)"/>
<path id="Vector_5" style="mix-blend-mode:screen" d="M9.56926 0.5H2.42127L1.91064 2.07286C2.22835 2.0872 2.55753 2.12737 2.89459 2.19192L3.12839 1.47326H8.86285L10.635 6.92699L9.96227 7.41613C10.1136 7.71019 10.2477 8.01429 10.3625 8.32772L11.7781 7.29923L9.56926 0.500717V0.5Z" fill="url(#paint2_linear_5244_31995)"/>
<path id="Vector_6" style="mix-blend-mode:screen" d="M9.18112 9.18765C9.14741 8.80896 9.09076 8.4482 9.01474 8.10609L5.99905 10.2972L1.3597 6.92626L2.63196 3.01025C2.27051 3.01886 1.91479 3.05974 1.56983 3.13003L0.21582 7.29778L5.99833 11.4992L9.1804 9.18693L9.18112 9.18765Z" fill="url(#paint3_linear_5244_31995)"/>
<path id="Vector_7" d="M1.36426 6.92638L1.82325 6.82382L3.41966 1.90872H8.58756L10.184 6.82382L10.643 6.92638L8.87084 1.47266H3.13638L1.36426 6.92638Z" fill="#455A82"/>
<g id="Vector_8" style="mix-blend-mode:multiply" opacity="0.2">
<path d="M1.82494 6.82379L2.71853 4.53084C3.2478 3.17315 4.55519 2.58431 6.01247 2.58431C7.47549 2.58431 8.78791 3.18104 9.31216 4.54734L10.1864 6.82379L8.58926 1.90869H3.42135L1.82422 6.82379H1.82494Z" fill="#2753A0"/>
</g>
<path id="Vector_9" d="M1.36426 6.92605L1.82325 6.82349L6.00361 9.8609L10.184 6.82349L10.643 6.92605L6.00361 10.297L1.36426 6.92605Z" fill="url(#paint4_linear_5244_31995)"/>
<g id="Vector_10" style="mix-blend-mode:multiply" opacity="0.6">
<path d="M1.81833 6.82379L3.45777 2.61659C3.53666 2.41361 3.73245 2.27949 3.95046 2.27949H8.07059C8.28933 2.27949 8.48583 2.41433 8.564 2.61874L10.1791 6.82379L8.58193 1.90869H3.41403L1.81689 6.82379H1.81833Z" fill="#2753A0"/>
</g>
<path id="Vector_11" d="M3.13135 1.47266L3.41462 1.90872H8.58253L8.86581 1.47266H3.13135Z" fill="#2E3E54"/>
<g id="Vector_12" style="mix-blend-mode:multiply" opacity="0.35">
<path d="M1.00757 4.85986L0.453916 6.93406C0.410886 7.11264 0.495512 7.35004 0.643249 7.4605L5.99833 11.4999L0.21582 7.2984L1.00829 4.86058L1.00757 4.85986Z" fill="#455A82"/>
</g>
<g id="Vector_13" style="mix-blend-mode:multiply" opacity="0.6">
<path d="M1.82422 6.82349L5.81238 9.51018C5.9178 9.58119 6.09136 9.58119 6.19678 9.51018L10.185 6.82349L6.00458 9.8609L1.82422 6.82349Z" fill="#2753A0"/>
</g>
<g id="Vector_14" style="mix-blend-mode:multiply" opacity="0.35">
<path d="M6.00195 11.5001L11.1512 7.52242C11.5112 7.25561 11.5894 7.19752 11.4273 6.68614L10.353 2.89062L11.7852 7.29865L6.00267 11.5001H6.00195Z" fill="#455A82"/>
</g>
<path id="Vector_15" d="M3.4458 8.44031L6.00107 10.2972L9.45207 7.78979L6.00107 10.455L3.4458 8.44031Z" fill="#F3FEFF"/>
<path id="Vector_16" d="M5.80469 0.5H9.57196L10.3487 2.89049L9.42852 0.632685L5.80469 0.5Z" fill="#F3FEFF"/>
<g id="Vector_17" style="mix-blend-mode:screen">
<path d="M7.30333 0.5C7.27178 0.809838 7.40733 1.15625 7.66838 1.47255H8.86532L9.16151 2.38341C9.53659 2.47522 9.89517 2.47809 10.1892 2.39776L9.57245 0.5H7.30405H7.30333Z" fill="white"/>
</g>
<g id="Vector_18" style="mix-blend-mode:screen">
<path d="M3.135 8.21436C3.04463 8.44745 3.20815 8.79459 3.53733 9.03342C3.8665 9.27225 4.24732 9.32102 4.44024 9.16324L3.13428 8.21436H3.135Z" fill="white"/>
</g>
<g id="Vector_19" style="mix-blend-mode:screen">
<path d="M4.45299 9.79876C4.39777 9.88339 4.24502 9.88196 4.11234 9.79518C3.97966 9.70839 3.91584 9.56925 3.97106 9.48462C4.02628 9.39999 4.17904 9.40142 4.31171 9.48821C4.44511 9.57499 4.50822 9.71413 4.45299 9.79876Z" fill="white"/>
</g>
<g id="Vector_20" style="mix-blend-mode:multiply" opacity="0.35">
<path d="M1.14258 4.45976L2.35028 0.996315C2.47507 0.644878 2.56616 0.552356 2.93837 0.538729L6.00282 0.5H2.42918L1.14258 4.45976Z" fill="#455A82"/>
</g>
<g id="Vector_21" style="mix-blend-mode:screen">
<path d="M7.08116 1.04073C6.83159 0.859269 6.53038 0.847794 6.40846 1.01491C6.32168 1.13468 6.35038 1.31399 6.46584 1.47249H7.36158C7.34795 1.32618 7.24684 1.16122 7.08046 1.04073H7.08116Z" fill="white"/>
</g>
<g id="Vector_22" style="mix-blend-mode:multiply" opacity="0.6">
<path d="M8.45215 6.91332L8.87457 6.18176V5.83176L8.02974 6.18176L7.60733 5.4502L7.18493 6.18176L6.34082 5.83176V6.18176L6.76251 6.91332L6.34082 7.29488V7.64488H7.18493L7.60733 8.37645L8.02974 7.64488H8.87457V7.29488L8.45215 6.91332Z" fill="#2753A0"/>
</g>
<path id="Vector_23" d="M8.45215 6.56347L8.87457 5.8319V5.55793L8.02974 5.8319L7.60733 5.10034L7.18493 5.8319L6.34082 5.55793V5.8319L6.76251 6.56347L6.34082 7.02105V7.29503H7.18493L7.60733 8.02659L8.02974 7.29503H8.87457V7.02105L8.45215 6.56347Z" fill="#455A82"/>
<path id="Vector_24" d="M8.45215 6.28907L8.87457 5.5575H8.02974L7.60733 4.82666L7.18493 5.5575H6.34082L6.76251 6.28907L6.34082 7.02063H7.18493L7.60733 7.75219L8.02974 7.02063H8.87457L8.45215 6.28907Z" fill="url(#paint5_radial_5244_31995)"/>
<path id="Vector_25" style="mix-blend-mode:screen" d="M7.4137 5.16284L7.18564 5.55803H6.34082L6.76323 6.28959L6.34082 7.02115H7.18564L7.60805 7.75272L8.03046 7.02115H8.52531C8.24418 6.3025 7.86408 5.68426 7.4137 5.16284Z" fill="url(#paint6_linear_5244_31995)"/>
<path id="Vector_26" d="M8.88047 7.021H8.03564V7.29426H8.88047V7.021Z" fill="#2E3E54"/>
<path id="Vector_27" d="M7.18493 7.29497L7.60733 8.02653V7.75256L7.18493 7.021H6.34082V7.29497H7.18493Z" fill="#2E3E54"/>
<path id="Vector_28" d="M6.34082 5.55762L6.76251 6.28918L6.68362 6.42617L6.34082 5.83159V5.55762Z" fill="#2E3E54"/>
<g id="Vector_29" style="mix-blend-mode:multiply" opacity="0.35">
<path d="M6.34082 5.55762L6.91742 6.28918L6.34082 7.02074L6.76251 6.28918L6.34082 5.55762Z" fill="#455A82"/>
</g>
<g id="Vector_30" style="mix-blend-mode:screen" opacity="0.8">
<path d="M7.60645 4.82666L8.0138 5.62994L8.87368 5.5575H8.02886L7.60645 4.82666Z" fill="#F3FAFF"/>
</g>
<g id="Vector_31" style="mix-blend-mode:screen" opacity="0.5">
<path d="M6.34082 7.02102L7.26453 6.94141L7.60733 7.75258L7.18493 7.02102H6.34082Z" fill="#F3FAFF"/>
</g>
<g id="Vector_32" style="mix-blend-mode:multiply" opacity="0.35">
<path d="M7.60645 7.75263L7.97435 6.85181L8.87368 7.02107H8.02886L7.60645 7.75263Z" fill="#455A82"/>
</g>
<g id="Vector_33" style="mix-blend-mode:multiply" opacity="0.6">
<path d="M5.23243 6.91332L5.65484 6.18176V5.83176L4.81002 6.18176L4.38832 5.4502L3.96591 6.18176L3.12109 5.83176V6.18176L3.54351 6.91332L3.12109 7.29488V7.64488H3.96591L4.38832 8.37645L4.81002 7.64488H5.65484V7.29488L5.23243 6.91332Z" fill="#2753A0"/>
</g>
<path id="Vector_34" d="M5.23243 6.56347L5.65484 5.8319V5.55793L4.81002 5.8319L4.38832 5.10034L3.96591 5.8319L3.12109 5.55793V5.8319L3.54351 6.56347L3.12109 7.02105V7.29503H3.96591L4.38832 8.02659L4.81002 7.29503H5.65484V7.02105L5.23243 6.56347Z" fill="#455A82"/>
<path id="Vector_35" d="M5.23243 6.28907L5.65484 5.5575H4.81002L4.38832 4.82666L3.96591 5.5575H3.12109L3.54351 6.28907L3.12109 7.02063H3.96591L4.38832 7.75219L4.81002 7.02063H5.65484L5.23243 6.28907Z" fill="url(#paint7_radial_5244_31995)"/>
<path id="Vector_36" style="mix-blend-mode:screen" d="M5.23243 6.28907L5.65484 5.5575H4.81002L4.38832 4.82666L3.96591 5.5575H3.12109L3.54351 6.28907L3.12109 7.02063H3.96591L4.38832 7.75219L4.81002 7.02063H5.65484L5.23243 6.28907Z" fill="url(#paint8_linear_5244_31995)"/>
<path id="Vector_37" d="M5.65342 7.021H4.80859V7.29426H5.65342V7.021Z" fill="#2E3E54"/>
<path id="Vector_38" d="M3.96591 7.29497L4.38832 8.02653V7.75256L3.96591 7.021H3.12109V7.29497H3.96591Z" fill="#2E3E54"/>
<path id="Vector_39" d="M3.12109 5.55762L3.54351 6.28918L3.46461 6.42617L3.12109 5.83159V5.55762Z" fill="#2E3E54"/>
<g id="Vector_40" style="mix-blend-mode:multiply" opacity="0.35">
<path d="M3.12109 5.55762L3.69841 6.28918L3.12109 7.02074L3.54351 6.28918L3.12109 5.55762Z" fill="#455A82"/>
</g>
<g id="Vector_41" style="mix-blend-mode:screen" opacity="0.8">
<path d="M4.38672 4.82666L4.79407 5.62994L5.65324 5.5575H4.80841L4.38672 4.82666Z" fill="#F3FAFF"/>
</g>
<g id="Vector_42" style="mix-blend-mode:screen" opacity="0.5">
<path d="M3.12109 7.02102L4.0448 6.94141L4.38832 7.75258L3.96591 7.02102H3.12109Z" fill="#F3FAFF"/>
</g>
<g id="Vector_43" style="mix-blend-mode:multiply" opacity="0.35">
<path d="M4.38672 7.75263L4.75463 6.85181L5.65324 7.02107H4.80841L4.38672 7.75263Z" fill="#455A82"/>
</g>
<g id="Vector_44" style="mix-blend-mode:multiply" opacity="0.6">
<path d="M6.8506 4.13622L7.27301 3.40466V3.05466L6.42819 3.40466L6.00578 2.6731L5.58408 3.40466L4.73926 3.05466V3.40466L5.16167 4.13622L4.73926 4.51778V4.86778H5.58408L6.00578 5.59934L6.42819 4.86778H7.27301V4.51778L6.8506 4.13622Z" fill="#2753A0"/>
</g>
<path id="Vector_45" d="M6.8506 3.78637L7.27301 3.0548V2.78154L6.42819 3.0548L6.00578 2.32324L5.58408 3.0548L4.73926 2.78154V3.0548L5.16167 3.78637L4.73926 4.24395V4.51793H5.58408L6.00578 5.24949L6.42819 4.51793H7.27301V4.24395L6.8506 3.78637Z" fill="#455A82"/>
<path id="Vector_46" d="M6.8506 3.51317L7.27301 2.78161H6.42819L6.00578 2.05005L5.58408 2.78161H4.73926L5.16167 3.51317L4.73926 4.24402H5.58408L6.00578 4.97558L6.42819 4.24402H7.27301L6.8506 3.51317Z" fill="url(#paint9_radial_5244_31995)"/>
<path id="Vector_47" style="mix-blend-mode:screen" d="M6.00649 4.97519L6.42747 4.24578C6.02873 3.94957 5.60202 3.70715 5.15881 3.51709L4.73926 4.24363H5.58408L6.00649 4.97519Z" fill="url(#paint10_linear_5244_31995)"/>
<path id="Vector_48" style="mix-blend-mode:screen" d="M6.43034 2.78161L6.00792 2.05005L5.58551 2.78161H4.92285C5.71389 3.11942 6.48413 3.56481 7.19412 4.10488L6.85275 3.51317L7.27516 2.78161H6.43034Z" fill="url(#paint11_linear_5244_31995)"/>
<path id="Vector_49" d="M7.27891 4.2439H6.43408V4.51716H7.27891V4.2439Z" fill="#2E3E54"/>
<path id="Vector_50" d="M5.58408 4.51787L6.00578 5.24944V4.97546L5.58408 4.2439H4.73926V4.51787H5.58408Z" fill="#2E3E54"/>
<path id="Vector_51" d="M4.73926 2.78174L5.16167 3.5133L5.08278 3.64957L4.73926 3.055V2.78174Z" fill="#2E3E54"/>
<g id="Vector_52" style="mix-blend-mode:multiply" opacity="0.35">
<path d="M4.73926 2.78174L5.31658 3.5133L4.73926 4.24415L5.16167 3.5133L4.73926 2.78174Z" fill="#455A82"/>
</g>
<g id="Vector_53" style="mix-blend-mode:screen" opacity="0.8">
<path d="M6.01221 2.05005L6.41956 2.85333L7.27944 2.78161H6.43462L6.01221 2.05005Z" fill="#F3FAFF"/>
</g>
<g id="Vector_54" style="mix-blend-mode:screen" opacity="0.5">
<path d="M4.73926 4.24392L5.66297 4.16431L6.00578 4.97548L5.58408 4.24392H4.73926Z" fill="#F3FAFF"/>
</g>
<g id="Vector_55" style="mix-blend-mode:multiply" opacity="0.35">
<path d="M6.01221 4.97553L6.38083 4.07471L7.27944 4.24397H6.43462L6.01221 4.97553Z" fill="#455A82"/>
</g>
<path id="Vector_56" opacity="0.5" d="M4.99456 6.38313C4.89057 6.56315 4.58434 6.57965 4.30894 6.42115C4.03355 6.26264 3.89586 5.98795 3.99913 5.80864C4.10312 5.62862 4.41006 5.61212 4.68474 5.77063C4.95941 5.92913 5.09783 6.20383 4.99456 6.38313Z" fill="#E6FAFF"/>
<path id="Vector_57" opacity="0.5" d="M4.53224 6.84171C4.49925 6.89909 4.38952 6.89837 4.2884 6.83956C4.18656 6.78075 4.13134 6.68679 4.16433 6.62942C4.19732 6.57204 4.30705 6.57276 4.40817 6.63157C4.50929 6.69038 4.56523 6.78434 4.53224 6.84171Z" fill="#E6FAFF"/>
<path id="Vector_58" opacity="0.5" d="M6.4276 3.11925C6.37166 3.21607 6.18735 3.21464 6.01595 3.11566C5.84455 3.01669 5.75131 2.85818 5.80725 2.76064C5.86319 2.6631 6.04751 2.66525 6.21891 2.76422C6.39032 2.8632 6.48354 3.0217 6.4276 3.11925Z" fill="#E6FAFF"/>
</g>
</g>
<defs>
<radialGradient id="paint0_radial_5244_31995" cx="0" cy="0" r="1" gradientUnits="userSpaceOnUse" gradientTransform="translate(9.0886 -10.5287) scale(9.17328 9.17394)">
<stop offset="0.01" stop-color="#5C6CBA"/>
<stop offset="1" stop-color="#81B3D4"/>
</radialGradient>
<radialGradient id="paint1_radial_5244_31995" cx="0" cy="0" r="1" gradientUnits="userSpaceOnUse" gradientTransform="translate(10.7547 -0.382178) scale(12.691 12.6919)">
<stop offset="0.01" stop-color="#5C6CBA"/>
<stop offset="1" stop-color="#81B3D4"/>
</radialGradient>
<linearGradient id="paint2_linear_5244_31995" x1="11.3019" y1="-1.28516" x2="5.54905" y2="5.81059" gradientUnits="userSpaceOnUse">
<stop stop-color="#9CD3DE"/>
<stop offset="0.19" stop-color="#98CDDA"/>
<stop offset="0.41" stop-color="#8CBED0"/>
<stop offset="0.66" stop-color="#79A6C0"/>
<stop offset="0.93" stop-color="#5F84AA"/>
<stop offset="1" stop-color="#5779A3"/>
</linearGradient>
<linearGradient id="paint3_linear_5244_31995" x1="2.145" y1="10.2083" x2="7.17493" y2="3.90498" gradientUnits="userSpaceOnUse">
<stop stop-color="#42495E"/>
<stop offset="1" stop-color="#4A5780"/>
</linearGradient>
<linearGradient id="paint4_linear_5244_31995" x1="6.00361" y1="-10.5647" x2="6.00361" y2="-10.5647" gradientUnits="userSpaceOnUse">
<stop stop-color="#B4E6F7"/>
<stop offset="0.23" stop-color="#CCEEF9"/>
<stop offset="0.51" stop-color="#E3F7FC"/>
<stop offset="0.77" stop-color="#F2FCFE"/>
<stop offset="1" stop-color="#F7FEFF"/>
</linearGradient>
<radialGradient id="paint5_radial_5244_31995" cx="0" cy="0" r="1" gradientUnits="userSpaceOnUse" gradientTransform="translate(9.3228 -0.155136) scale(14.5922 14.5932)">
<stop offset="0.01" stop-color="#5C6CBA"/>
<stop offset="1" stop-color="#81B3D4"/>
</radialGradient>
<linearGradient id="paint6_linear_5244_31995" x1="3.6034" y1="11.2033" x2="9.56287" y2="3.5567" gradientUnits="userSpaceOnUse">
<stop stop-color="#42495E"/>
<stop offset="1" stop-color="#4A5780"/>
</linearGradient>
<radialGradient id="paint7_radial_5244_31995" cx="0" cy="0" r="1" gradientUnits="userSpaceOnUse" gradientTransform="translate(9.32099 -0.155136) scale(14.5922 14.5932)">
<stop offset="0.01" stop-color="#5C6CBA"/>
<stop offset="1" stop-color="#81B3D4"/>
</radialGradient>
<linearGradient id="paint8_linear_5244_31995" x1="1.70899" y1="9.72741" x2="7.66846" y2="2.08085" gradientUnits="userSpaceOnUse">
<stop stop-color="#42495E"/>
<stop offset="1" stop-color="#4A5780"/>
</linearGradient>
<radialGradient id="paint9_radial_5244_31995" cx="0" cy="0" r="1" gradientUnits="userSpaceOnUse" gradientTransform="translate(9.32196 -0.15468) scale(14.5922 14.5932)">
<stop offset="0.01" stop-color="#5C6CBA"/>
<stop offset="1" stop-color="#81B3D4"/>
</radialGradient>
<linearGradient id="paint10_linear_5244_31995" x1="1.46252" y1="9.53455" x2="7.42199" y2="1.88726" gradientUnits="userSpaceOnUse">
<stop stop-color="#42495E"/>
<stop offset="1" stop-color="#4A5780"/>
</linearGradient>
<linearGradient id="paint11_linear_5244_31995" x1="9.1398" y1="-0.849663" x2="2.35333" y2="8.60497" gradientUnits="userSpaceOnUse">
<stop stop-color="#42495E"/>
<stop offset="1" stop-color="#4A5780"/>
</linearGradient>
</defs>
</svg>
