<svg width="12" height="12" viewBox="0 0 12 12" fill="none" xmlns="http://www.w3.org/2000/svg">
<g id="icon" clip-path="url(#clip0_5244_32098)">
<g id="icon_2">
<path d="M5.99879 10.9474L11.2336 7.14437L9.23389 0.99141H2.76368L0.764654 7.14437L5.99879 10.9474Z" fill="#54101A"/>
<path d="M9.42147 0.733887H2.57699L0.461914 7.24325L5.99889 11.266L11.5359 7.24325L9.42147 0.733887ZM1.55722 6.88684L3.25409 1.66507H8.74506L10.4419 6.88684L6.00026 10.1144L1.55722 6.88684Z" fill="url(#paint0_radial_5244_32098)"/>
<path d="M3.25726 1.66516L6.00205 10.1145L8.74754 1.66516H3.25726Z" fill="#8C1919"/>
<path d="M9.42008 0.733887H2.57561L2.08667 2.23985C2.39088 2.25358 2.70608 2.29204 3.02884 2.35384L3.25271 1.66576H8.74367L10.4405 6.88753L9.7964 7.35587C9.9413 7.63742 10.0697 7.92859 10.1796 8.22868L11.5359 7.24325L9.42008 0.733887Z" fill="url(#paint1_radial_5244_32098)"/>
<path d="M9.42008 0.733887H2.57561L2.08667 2.23985C2.39088 2.25358 2.70608 2.29204 3.02884 2.35384L3.25271 1.66576H8.74367L10.4405 6.88753L9.7964 7.35587C9.9413 7.63742 10.0697 7.92859 10.1796 8.22868L11.5359 7.24325L9.42008 0.733887Z" fill="url(#paint2_linear_5244_32098)" style="mix-blend-mode:screen"/>
<path d="M9.04642 9.05198C9.01415 8.68939 8.9599 8.34398 8.8871 8.01641L6.00026 10.1144L1.55722 6.88684L2.77535 3.13731C2.42925 3.14555 2.08864 3.1847 1.75833 3.25199L0.461914 7.24325L5.99889 11.266L9.04642 9.05198Z" fill="url(#paint3_linear_5244_32098)" style="mix-blend-mode:screen"/>
<path d="M1.55722 6.88684L1.9955 6.78873L3.52482 2.08268H8.47259L10.0019 6.78873L10.4405 6.88753L8.74367 1.66576L3.25409 1.66507L1.55722 6.88684Z" fill="#9B1B2E"/>
<path d="M1.99417 6.7887L2.84981 4.59328C3.35661 3.29333 4.60849 2.72954 6.00389 2.72954C7.40479 2.72954 8.66147 3.30088 9.16346 4.60907L10.0006 6.7887L8.47125 2.08265H3.52279L1.99417 6.7887Z" fill="#892334"/>
<path d="M1.55722 6.88684L1.9955 6.78873L5.99836 9.69691L10.0019 6.78873L10.4405 6.88753L5.99836 10.1144L1.55722 6.88684Z" fill="url(#paint4_linear_5244_32098)"/>
<path d="M1.9955 6.78873L3.56469 2.76044C3.64022 2.5661 3.8277 2.43768 4.03646 2.43768H7.98163C8.19107 2.43768 8.37923 2.56679 8.45409 2.7625L10.0006 6.7887L8.47125 2.08265H3.52279L1.99417 6.7887L1.9955 6.78873Z" fill="#892334"/>
<path d="M3.25726 1.66516L3.52851 2.08268H8.47628L8.74754 1.66516H3.25726Z" fill="#661625"/>
<path d="M1.21995 4.90849L0.689802 6.89446C0.648599 7.06546 0.729632 7.29276 0.871095 7.39851L5.99889 11.266L0.461914 7.24325L1.21995 4.90849Z" fill="#9B1B2E"/>
<path d="M1.99931 6.78868L5.81812 9.36111C5.91907 9.42909 6.08526 9.42909 6.1862 9.36111L10.005 6.78868L6.00216 9.69691L1.99931 6.78868Z" fill="#892334"/>
<path d="M6.00029 11.266L10.9309 7.45745C11.2756 7.202 11.3505 7.14637 11.1953 6.65674L10.1666 3.02266L11.5379 7.2432L6.00029 11.266Z" fill="#9B1B2E"/>
<path d="M1.34704 4.52523L2.50346 1.20909C2.62295 0.872603 2.71016 0.784017 3.06657 0.77097L6.0009 0.733887H2.579L1.34704 4.52523Z" fill="#9B1B2E"/>
<path d="M3.55427 8.33643L6.00026 10.1144L9.3055 7.71358L6.00103 10.2654L3.55427 8.33643Z" fill="#FFF5CC"/>
<path d="M5.81392 0.733887H9.42147L10.1666 3.02266L9.28389 0.860929L5.81392 0.733887Z" fill="#FFF5CC"/>
<path d="M7.2509 0.733887C7.22069 1.03055 7.35048 1.36223 7.60044 1.66576H8.74656L9.03018 2.53788C9.38933 2.62578 9.73269 2.62853 10.0142 2.55162L9.42367 0.734573L7.2509 0.733887Z" fill="#FFF2BB"/>
<path d="M6.97238 1.25158C6.7334 1.07784 6.44498 1.06686 6.32824 1.22686C6.24515 1.34154 6.27261 1.51322 6.38317 1.66498H7.24088C7.22783 1.52489 7.13169 1.36695 6.97238 1.25158Z" fill="#FFF2BB"/>
<path d="M3.25756 8.12088C3.17103 8.34407 3.3276 8.67644 3.64281 8.90511C3.95801 9.13379 4.32265 9.18048 4.50738 9.02941L3.25756 8.12088Z" fill="#FFF2BB"/>
<path d="M4.51244 9.63718C4.45956 9.71821 4.31329 9.71683 4.18625 9.63374C4.05852 9.55065 3.99809 9.41743 4.05097 9.3364C4.10384 9.25536 4.25011 9.25673 4.37715 9.33983C4.50488 9.42292 4.56531 9.55614 4.51244 9.63718Z" fill="#FFF2BB"/>
<path d="M6.00201 5.80603L3.42615 4.61184V4.94489L6.00201 6.81619L8.57788 4.94489V4.61184L6.00201 5.80603Z" fill="#892334"/>
<path d="M6.00155 7.91083L2.87288 6.31422V6.64796L6.00155 8.92099L9.13091 6.64796V6.31422L6.00155 7.91083Z" fill="#892334"/>
<path d="M6.00201 5.43035L3.42615 4.11117V4.61184L6.00201 6.48308L8.57788 4.61184V4.11117L6.00201 5.43035Z" fill="#9B1B2E"/>
<path d="M6.00155 7.53518L2.87288 5.81428V6.31422L6.00155 8.58723L9.13091 6.31422V5.81428L6.00155 7.53518Z" fill="#9B1B2E"/>
<path d="M6.00201 4.93041L3.70221 3.26307L3.42615 4.11117L6.00201 5.98246L8.57788 4.11117L8.3025 3.26307L6.00201 4.93041Z" fill="url(#paint5_radial_5244_32098)"/>
<path d="M6.00155 7.03511L3.14826 4.96673L2.87288 5.81428L6.00155 8.08715L9.13091 5.81428L8.85553 4.96673L6.00155 7.03511Z" fill="url(#paint6_radial_5244_32098)"/>
<path d="M8.29774 3.26307L7.03693 4.17709C7.2711 4.35151 7.49909 4.53624 7.72021 4.73127L8.57311 4.11116L8.29774 3.26307Z" fill="url(#paint7_linear_5244_32098)" style="mix-blend-mode:screen"/>
<path d="M8.34798 5.33412C8.54301 5.53945 8.72979 5.7537 8.90559 5.97688L9.12946 5.81413L8.85409 4.96673L8.34798 5.33412Z" fill="url(#paint8_linear_5244_32098)" style="mix-blend-mode:screen"/>
<path d="M7.33973 5.01149C7.13784 4.79792 6.92358 4.60289 6.69834 4.42641L6.00201 4.93041L3.70152 3.2638L3.42615 4.11117L6.00201 5.98246L7.33973 5.01149Z" fill="url(#paint9_linear_5244_32098)" style="mix-blend-mode:screen"/>
<path d="M6.00155 8.08715L8.31784 6.40485C8.18599 6.14527 8.03903 5.90217 7.87971 5.67418L6.00155 7.03511L3.14826 4.96673L2.87288 5.81428L6.00155 8.08715Z" fill="url(#paint10_linear_5244_32098)" style="mix-blend-mode:screen"/>
<path d="M3.42615 4.11117L6.00201 5.98246V6.48308L3.42615 4.61184V4.11117Z" fill="#661625"/>
<path d="M2.87288 5.81428L6.00155 8.08715V8.58723L2.87288 6.31422V5.81428Z" fill="#661625"/>
<path d="M4.09007 3.54808L5.99707 5.07876L7.65342 3.73006L5.99707 4.93043L4.09007 3.54808Z" fill="#FFF5CC"/>
<path d="M4.20072 5.73046L6.0006 7.2426L8.19671 5.4441L6.00155 7.03511L4.20072 5.73046Z" fill="#FFF5CC"/>
<path d="M3.70152 3.2638L3.60813 3.82274C3.59302 3.99236 3.62804 4.08644 3.76058 4.19357L6.00201 5.98246L3.42615 4.11117L3.70152 3.2638Z" fill="#9B1B2E"/>
<path d="M3.14826 4.96673L3.06036 5.52571C3.04868 5.64314 3.07203 5.78529 3.16336 5.85945L6.00155 8.08715L2.87288 5.81428L3.14826 4.96673Z" fill="#9B1B2E"/>
<path d="M7.56108 4.84794L8.20727 4.26011C8.34393 4.13581 8.41191 3.95246 8.38994 3.76911L8.34668 3.40721L8.57535 4.11109L7.56108 4.84794Z" fill="#9B1B2E"/>
<path d="M7.56108 6.95278L8.83012 5.86159C8.94481 5.76339 8.98738 5.65626 8.97296 5.50656L8.91184 5.14672L9.12946 5.81413L7.56108 6.95278Z" fill="#9B1B2E"/>
</g>
</g>
<defs>
<radialGradient id="paint0_radial_5244_32098" cx="0" cy="0" r="1" gradientUnits="userSpaceOnUse" gradientTransform="translate(8.95954 1.08548) scale(8.78541 8.78376)">
<stop offset="0.01" stop-color="#E85621"/>
<stop offset="1" stop-color="#E33A0B"/>
</radialGradient>
<radialGradient id="paint1_radial_5244_32098" cx="0" cy="0" r="1" gradientUnits="userSpaceOnUse" gradientTransform="translate(10.3884 -0.452112) scale(14.2453 17.0768)">
<stop offset="0.01" stop-color="#E85621"/>
<stop offset="1" stop-color="#E33A0B"/>
</radialGradient>
<linearGradient id="paint2_linear_5244_32098" x1="11.0034" y1="-1.66803" x2="3.09522" y2="6.46939" gradientUnits="userSpaceOnUse">
<stop stop-color="#FFA369"/>
<stop offset="0.13" stop-color="#FD9D65"/>
<stop offset="0.29" stop-color="#F98E5C"/>
<stop offset="0.47" stop-color="#F3764C"/>
<stop offset="0.65" stop-color="#EA5335"/>
<stop offset="0.85" stop-color="#DE2819"/>
<stop offset="1" stop-color="#D40000"/>
</linearGradient>
<linearGradient id="paint3_linear_5244_32098" x1="2.84617" y1="9.66431" x2="9.09164" y2="1.86976" gradientUnits="userSpaceOnUse">
<stop stop-color="#D40000"/>
<stop offset="1" stop-color="#FFAF47"/>
</linearGradient>
<linearGradient id="paint4_linear_5244_32098" x1="5.9995" y1="-1.70397" x2="5.9995" y2="4.10686" gradientUnits="userSpaceOnUse">
<stop offset="0.63" stop-color="#F7814A"/>
<stop offset="1" stop-color="#F7E399"/>
</linearGradient>
<radialGradient id="paint5_radial_5244_32098" cx="0" cy="0" r="1" gradientUnits="userSpaceOnUse" gradientTransform="translate(11.9543 -6.2104) scale(19.1372 34.4741)">
<stop offset="0.01" stop-color="#E85621"/>
<stop offset="1" stop-color="#E33A0B"/>
</radialGradient>
<radialGradient id="paint6_radial_5244_32098" cx="0" cy="0" r="1" gradientUnits="userSpaceOnUse" gradientTransform="translate(10.9011 -11.0684) scale(15.7541 30.0435)">
<stop offset="0.01" stop-color="#E85621"/>
<stop offset="1" stop-color="#E33A0B"/>
</radialGradient>
<linearGradient id="paint7_linear_5244_32098" x1="28.9912" y1="-27.4043" x2="-6.74102" y2="26.7047" gradientUnits="userSpaceOnUse">
<stop stop-color="#FFA369"/>
<stop offset="0.13" stop-color="#FD9D65"/>
<stop offset="0.29" stop-color="#F98E5C"/>
<stop offset="0.47" stop-color="#F3764C"/>
<stop offset="0.65" stop-color="#EA5335"/>
<stop offset="0.85" stop-color="#DE2819"/>
<stop offset="1" stop-color="#D40000"/>
</linearGradient>
<linearGradient id="paint8_linear_5244_32098" x1="56.4644" y1="-48.8982" x2="11.9036" y2="42.2714" gradientUnits="userSpaceOnUse">
<stop stop-color="#FFA369"/>
<stop offset="0.13" stop-color="#FD9D65"/>
<stop offset="0.29" stop-color="#F98E5C"/>
<stop offset="0.47" stop-color="#F3764C"/>
<stop offset="0.65" stop-color="#EA5335"/>
<stop offset="0.85" stop-color="#DE2819"/>
<stop offset="1" stop-color="#D40000"/>
</linearGradient>
<linearGradient id="paint9_linear_5244_32098" x1="-5.64846" y1="23.6014" x2="13.0645" y2="7.42893" gradientUnits="userSpaceOnUse">
<stop stop-color="#D40000"/>
<stop offset="1" stop-color="#FFAF47"/>
</linearGradient>
<linearGradient id="paint10_linear_5244_32098" x1="-0.999245" y1="17.4439" x2="14.5787" y2="6.33782" gradientUnits="userSpaceOnUse">
<stop stop-color="#D40000"/>
<stop offset="1" stop-color="#FFAF47"/>
</linearGradient>
<clipPath id="clip0_5244_32098">
<rect width="12" height="12" fill="white"/>
</clipPath>
</defs>
</svg>
