<svg width="281" height="153" viewBox="0 0 281 153" fill="none" xmlns="http://www.w3.org/2000/svg">
<g filter="url(#filter0_i_5396_131825)">
<path d="M252.8 26H17.3256C16.8364 26 16.5917 26 16.3616 26.0553C16.1575 26.1043 15.9624 26.1851 15.7834 26.2948C15.5816 26.4184 15.4086 26.5914 15.0627 26.9374L0.937164 41.0641L0.937158 41.0641C0.591293 41.41 0.418359 41.5829 0.294689 41.7848C0.185043 41.9637 0.104243 42.1588 0.0552543 42.3628C0 42.593 0 42.8376 0 43.3267V112.8C0 113.92 0 114.48 0.217987 114.908C0.409734 115.284 0.715695 115.59 1.09202 115.782C1.51984 116 2.07989 116 3.2 116H211.675C212.164 116 212.408 116 212.638 116.055C212.843 116.104 213.038 116.185 213.217 116.295C213.418 116.418 213.591 116.591 213.937 116.937L217.737 120.737L217.737 120.737C218.529 121.529 218.925 121.925 219.382 122.074C219.784 122.204 220.216 122.204 220.618 122.074C221.075 121.925 221.471 121.529 222.263 120.737L222.263 120.737L226.063 116.937C226.409 116.591 226.582 116.418 226.783 116.295C226.962 116.185 227.157 116.104 227.362 116.055C227.592 116 227.836 116 228.325 116H238.531C239.006 116 239.243 116 239.467 115.948C239.666 115.901 239.856 115.825 240.032 115.721C240.23 115.604 240.401 115.439 240.744 115.111L255.013 101.444L255.014 101.443C255.377 101.095 255.559 100.921 255.689 100.716C255.805 100.533 255.89 100.334 255.942 100.124C256 99.8882 256 99.6364 256 99.1327V29.2C256 28.0799 256 27.5198 255.782 27.092C255.59 26.7157 255.284 26.4097 254.908 26.218C254.48 26 253.92 26 252.8 26Z" fill="url(#paint0_linear_5396_131825)"/>
</g>
<path d="M17.3252 26.5H252.8C253.368 26.5 253.765 26.5002 254.073 26.5254C254.3 26.5439 254.455 26.5747 254.573 26.6172L254.681 26.6631C254.928 26.7889 255.134 26.9809 255.278 27.2158L255.337 27.3193C255.404 27.4509 255.45 27.6247 255.475 27.9268C255.5 28.2352 255.5 28.6319 255.5 29.2002V99.1328C255.5 99.5292 255.498 99.7296 255.48 99.874L255.456 100.005C255.427 100.122 255.384 100.236 255.328 100.343L255.267 100.448C255.222 100.519 255.167 100.586 255.076 100.682L254.668 101.082L254.66 101.09L240.398 114.75C240.129 115.008 239.992 115.138 239.882 115.221L239.777 115.291C239.678 115.35 239.573 115.396 239.464 115.431L239.354 115.461C239.198 115.497 239.029 115.5 238.531 115.5H228.325C227.976 115.5 227.713 115.498 227.476 115.527L227.245 115.569C227.054 115.615 226.868 115.683 226.693 115.772L226.522 115.868C226.258 116.03 226.038 116.255 225.709 116.584L221.909 120.384C221.507 120.786 221.227 121.065 220.991 121.266C220.817 121.413 220.686 121.501 220.572 121.555L220.464 121.599C220.2 121.684 219.918 121.694 219.65 121.63L219.536 121.599C219.396 121.553 219.24 121.462 219.009 121.266C218.891 121.166 218.762 121.046 218.612 120.9L218.091 120.384L214.291 116.584C214.044 116.337 213.859 116.149 213.67 116.002L213.478 115.868C213.31 115.765 213.131 115.683 212.944 115.622L212.755 115.569C212.454 115.497 212.14 115.5 211.675 115.5H3.2002C2.63189 115.5 2.23518 115.5 1.92676 115.475C1.69984 115.456 1.54536 115.425 1.42676 115.383L1.31934 115.337C1.07239 115.211 0.865801 115.019 0.72168 114.784L0.663086 114.681C0.596134 114.549 0.550093 114.375 0.525391 114.073C0.500192 113.765 0.5 113.368 0.5 112.8V43.3271C0.5 42.9429 0.501577 42.7478 0.518555 42.6074L0.541016 42.4795C0.568587 42.3646 0.609582 42.2534 0.663086 42.1484L0.720703 42.0459C0.763517 41.976 0.815825 41.9098 0.902344 41.8154L1.29102 41.418L15.416 27.291C15.6881 27.0189 15.8271 26.8822 15.9385 26.7949L16.0449 26.7207C16.1456 26.659 16.2532 26.6096 16.3652 26.5732L16.4785 26.541C16.6376 26.5029 16.8128 26.5 17.3252 26.5Z" stroke="url(#paint1_linear_5396_131825)" stroke-opacity="0.25"/>
<path d="M17.3213 26.5H252.8C253.368 26.5 253.765 26.5002 254.073 26.5254C254.3 26.5439 254.455 26.5747 254.573 26.6172L254.681 26.6631C254.928 26.7889 255.134 26.9809 255.278 27.2158L255.337 27.3193C255.404 27.4509 255.45 27.6247 255.475 27.9268C255.5 28.2352 255.5 28.6319 255.5 29.2002V98.7422C255.5 99.1282 255.499 99.324 255.481 99.4648L255.458 99.5928C255.43 99.7076 255.39 99.8189 255.336 99.9238L255.277 100.027C255.234 100.097 255.182 100.164 255.096 100.258L254.705 100.656L240.584 114.714C240.312 114.984 240.173 115.119 240.062 115.206L239.956 115.28C239.856 115.342 239.748 115.391 239.637 115.427L239.523 115.459C239.365 115.497 239.19 115.5 238.679 115.5H228.325C227.976 115.5 227.713 115.498 227.476 115.527L227.245 115.569C227.054 115.615 226.868 115.683 226.693 115.772L226.522 115.868C226.39 115.949 226.269 116.046 226.14 116.163L225.709 116.584L221.832 120.46C221.442 120.85 221.171 121.121 220.942 121.315C220.775 121.458 220.648 121.544 220.537 121.598L220.431 121.642C220.174 121.728 219.898 121.743 219.635 121.686L219.523 121.657C219.385 121.616 219.231 121.531 219 121.349C218.882 121.255 218.753 121.143 218.604 121.008L218.081 120.525L213.764 116.495C213.52 116.268 213.338 116.095 213.153 115.96L212.966 115.838C212.803 115.743 212.631 115.668 212.451 115.612L212.271 115.563C211.982 115.497 211.682 115.5 211.238 115.5H3.2002C2.63189 115.5 2.23518 115.5 1.92676 115.475C1.69984 115.456 1.54536 115.425 1.42676 115.383L1.31934 115.337C1.07239 115.211 0.865801 115.019 0.72168 114.784L0.663086 114.681C0.596134 114.549 0.550093 114.375 0.525391 114.073C0.500192 113.765 0.5 113.368 0.5 112.8V43.2578C0.5 42.8718 0.501412 42.676 0.518555 42.5352L0.541992 42.4072C0.569683 42.2924 0.610429 42.1812 0.664062 42.0762L0.722656 41.9727C0.765629 41.9028 0.817591 41.8364 0.904297 41.7422L1.29492 41.3438L15.416 27.2861C15.6878 27.0156 15.8273 26.8807 15.9385 26.7939L16.0439 26.7197C16.1443 26.6584 16.2516 26.6094 16.3633 26.5732L16.4766 26.541C16.6354 26.503 16.8099 26.5 17.3213 26.5Z" stroke="url(#paint2_linear_5396_131825)"/>
<defs>
<filter id="filter0_i_5396_131825" x="0" y="26" width="256" height="104.172" filterUnits="userSpaceOnUse" color-interpolation-filters="sRGB">
<feFlood flood-opacity="0" result="BackgroundImageFix"/>
<feBlend mode="normal" in="SourceGraphic" in2="BackgroundImageFix" result="shape"/>
<feColorMatrix in="SourceAlpha" type="matrix" values="0 0 0 0 0 0 0 0 0 0 0 0 0 0 0 0 0 0 127 0" result="hardAlpha"/>
<feOffset dy="8"/>
<feGaussianBlur stdDeviation="15"/>
<feComposite in2="hardAlpha" operator="arithmetic" k2="-1" k3="1"/>
<feColorMatrix type="matrix" values="0 0 0 0 0 0 0 0 0 0 0 0 0 0 0 0 0 0 0.7 0"/>
<feBlend mode="normal" in2="shape" result="effect1_innerShadow_5396_131825"/>
</filter>
<linearGradient id="paint0_linear_5396_131825" x1="-34" y1="26" x2="286.596" y2="27.3214" gradientUnits="userSpaceOnUse">
<stop stop-color="#131313"/>
<stop offset="1" stop-color="#1C1C1C"/>
</linearGradient>
<linearGradient id="paint1_linear_5396_131825" x1="126" y1="26" x2="126" y2="172.012" gradientUnits="userSpaceOnUse">
<stop stop-color="white"/>
<stop offset="1" stop-color="white" stop-opacity="0"/>
</linearGradient>
<linearGradient id="paint2_linear_5396_131825" x1="-34" y1="26" x2="135.221" y2="26.3658" gradientUnits="userSpaceOnUse">
<stop stop-color="white" stop-opacity="0"/>
<stop offset="1" stop-color="white"/>
</linearGradient>
</defs>
</svg>
